<svg xmlns="http://www.w3.org/2000/svg" width="30" height="30" viewBox="0 0 30 30">
    <g data-name="그룹 44693">
        <g data-name="그룹 43605">
            <path data-name="패스 33697" d="M13.736 61.675H2.029A2.046 2.046 0 0 1 0 59.666a.491.491 0 1 1 .981 0 1.052 1.052 0 0 0 1.048 1.027h11.216v-2.746a.491.491 0 1 1 .981 0v3.238a.491.491 0 0 1-.491.491" transform="translate(8 -37.363)" style="fill:#303030"/>
            <path data-name="패스 33698" d="M.491 61.155A.491.491 0 0 1 0 60.664a2.046 2.046 0 0 1 2.029-2.008h11.707a.491.491 0 0 1 0 .981H2.029a1.052 1.052 0 0 0-1.048 1.027.491.491 0 0 1-.491.491" transform="translate(8 -38.269)" style="fill:#303030"/>
            <path data-name="패스 33699" d="M.491 20.308A.491.491 0 0 1 0 19.817V6.765a2.115 2.115 0 0 1 2.115-2.109h11.62a.491.491 0 0 1 .491.491V18.1a.491.491 0 1 1-.981 0V5.637H2.115A1.133 1.133 0 0 0 .981 6.765v13.052a.491.491 0 0 1-.491.491" transform="translate(8 2.486)" style="fill:#303030"/>
            <path data-name="패스 33700" d="M12.491 19.392A.491.491 0 0 1 12 18.9V6.147a.491.491 0 1 1 .981 0V18.9a.491.491 0 0 1-.491.491" transform="translate(-1.057 1.731)" style="fill:#303030"/>
            <path data-name="패스 33701" d="M34.528 2v5.507l-1.594-1.356-1.56 1.357L31.341 2z" transform="translate(-15.654 4.49)" style="fill:#303030"/>
            <path data-name="패스 33702" d="M33.018 6.488a.491.491 0 0 1-.318-.117l-1.272-1.083-1.242 1.079A.49.49 0 0 1 29.374 6L29.341.494A.491.491 0 0 1 29.832 0h3.187a.491.491 0 0 1 .491.491V6a.49.49 0 0 1-.491.491M31.425 4.15a.489.489 0 0 1 .318.117l.785.668V.981h-2.2l.024 3.945.754-.656a.489.489 0 0 1 .322-.12" transform="translate(-14.144 6)" style="fill:#303030"/>
        </g>
    </g>
</svg>
