<svg xmlns="http://www.w3.org/2000/svg" width="205" height="80" viewBox="0 0 205 80">
    <defs>
        <clipPath id="zszyx0npda">
            <path data-name="사각형 7" style="fill:none" d="M0 0h145.966v38.254H0z"/>
        </clipPath>
    </defs>
    <g data-name="그룹 45055">
        <g data-name="그룹 3" transform="translate(.001 21)" style="clip-path:url(#zszyx0npda)">
            <path data-name="패스 4" d="M134.826 33.234a.707.707 0 0 1 .166-.553.868.868 0 0 1 .553-.138h23.343a.869.869 0 0 1 .553.138.709.709 0 0 1 .166.553v3.236a.707.707 0 0 1-.166.553.864.864 0 0 1-.553.138h-9.017v5.366a.708.708 0 0 1-.166.553.869.869 0 0 1-.553.138h-3.872a.868.868 0 0 1-.553-.138.709.709 0 0 1-.166-.553v-5.366h-9.016a.863.863 0 0 1-.553-.138.7.7 0 0 1-.166-.553zm12.418-16.539a18.293 18.293 0 0 1 5.034.595 9.951 9.951 0 0 1 3.319 1.577 5.854 5.854 0 0 1 1.839 2.267 6.568 6.568 0 0 1 0 5.338 5.849 5.849 0 0 1-1.836 2.268 9.935 9.935 0 0 1-3.319 1.577 21.594 21.594 0 0 1-10.067 0 9.925 9.925 0 0 1-3.319-1.577 5.84 5.84 0 0 1-1.839-2.268 6.564 6.564 0 0 1 0-5.338 5.845 5.845 0 0 1 1.839-2.267 9.942 9.942 0 0 1 3.319-1.577 18.285 18.285 0 0 1 5.033-.595m0 9.763q1.023 0 2.019-.1a7.144 7.144 0 0 0 1.783-.387 3.191 3.191 0 0 0 1.273-.816 2.139 2.139 0 0 0 0-2.711 3.2 3.2 0 0 0-1.273-.816 7.182 7.182 0 0 0-1.783-.387q-1-.1-2.019-.1t-2.019.1a7.181 7.181 0 0 0-1.784.387 3.2 3.2 0 0 0-1.273.816 2.14 2.14 0 0 0 0 2.711 3.191 3.191 0 0 0 1.273.816 7.143 7.143 0 0 0 1.784.387q1 .1 2.019.1" transform="translate(-77.252 -9.566)" style="fill:#ffc800"/>
            <path data-name="패스 5" d="M203.09 35.182a2.176 2.176 0 0 0 .414 1.466 1.905 1.905 0 0 0 1.521.442q2.047-.055 4-.152t4.024-.29a.589.589 0 0 1 .526.1 1.1 1.1 0 0 1 .193.567l.276 3.208q.055.415-.138.525a1.7 1.7 0 0 1-.58.166q-2.739.222-5.338.346t-5.255.125a4.61 4.61 0 0 1-3.8-1.425 7.247 7.247 0 0 1-1.148-4.55v-7.968a.706.706 0 0 1 .166-.553.866.866 0 0 1 .553-.138h8.38a.866.866 0 0 0 .553-.138.709.709 0 0 0 .166-.553v-2.877a1.807 1.807 0 0 0-.36-1.355 1.636 1.636 0 0 0-1.079-.3H198.5a.866.866 0 0 1-.553-.138.705.705 0 0 1-.166-.553v-3.1a.706.706 0 0 1 .166-.553.869.869 0 0 1 .553-.138h10.537a5.714 5.714 0 0 1 1.8.249 2.535 2.535 0 0 1 1.2.816 3.6 3.6 0 0 1 .664 1.466 9.945 9.945 0 0 1 .208 2.2v8.763a.706.706 0 0 1-.166.553.866.866 0 0 1-.553.138h-8.38a.873.873 0 0 0-.553.138.708.708 0 0 0-.166.553zm13.552 7.882a.868.868 0 0 1-.553-.138.707.707 0 0 1-.166-.553V18.034a.708.708 0 0 1 .166-.553.871.871 0 0 1 .553-.138h3.872a.871.871 0 0 1 .553.138.708.708 0 0 1 .166.553v24.339a.707.707 0 0 1-.166.553.868.868 0 0 1-.553.138z" transform="translate(-113.323 -9.937)" style="fill:#ffc800"/>
            <path data-name="패스 6" d="M265.4 34.969a.869.869 0 0 1-.553-.138.707.707 0 0 1-.166-.553v-3.486a.7.7 0 0 1 .166-.553.869.869 0 0 1 .553-.139h3.706a.867.867 0 0 1 .553.139.705.705 0 0 1 .166.553v3.485a.707.707 0 0 1-.166.553.868.868 0 0 1-.553.138zm0 11.062a.867.867 0 0 1-.553-.138.707.707 0 0 1-.166-.553v-3.484a.708.708 0 0 1 .166-.553.872.872 0 0 1 .553-.138h3.706a.871.871 0 0 1 .553.138.708.708 0 0 1 .166.553v3.484a.707.707 0 0 1-.166.553.865.865 0 0 1-.553.138z" transform="translate(-151.658 -17.247)" style="fill:#231815"/>
            <path data-name="패스 7" d="M283.791 33.882a.705.705 0 0 1 .166-.553.866.866 0 0 1 .553-.138h23.343a.868.868 0 0 1 .553.138.707.707 0 0 1 .166.553v3.236a.706.706 0 0 1-.166.553.866.866 0 0 1-.553.138h-4.038V42.9a.706.706 0 0 1-.166.553.868.868 0 0 1-.553.138h-3.872a.867.867 0 0 1-.553-.138.706.706 0 0 1-.166-.553v-5.091h-4.646V42.9a.706.706 0 0 1-.166.553.869.869 0 0 1-.553.138h-3.872a.866.866 0 0 1-.553-.138.706.706 0 0 1-.166-.553v-5.091h-4.039a.863.863 0 0 1-.553-.138.7.7 0 0 1-.166-.553zM306.8 27.6a3.538 3.538 0 0 1-.747 2.516 2.975 2.975 0 0 1-2.24.775H288.52a2.974 2.974 0 0 1-2.24-.775 3.538 3.538 0 0 1-.747-2.516v-9.566a.708.708 0 0 1 .166-.553.87.87 0 0 1 .553-.138h3.6a.873.873 0 0 1 .553.138.708.708 0 0 1 .166.553v2.157h11.2v-2.157a.708.708 0 0 1 .166-.553.869.869 0 0 1 .553-.138h3.6a.871.871 0 0 1 .553.138.708.708 0 0 1 .166.553zm-5.836-1.051a.859.859 0 0 0 .636-.18 1.076 1.076 0 0 0 .166-.705v-1.131h-11.2v1.134a1.077 1.077 0 0 0 .166.705.86.86 0 0 0 .636.18z" transform="translate(-162.605 -9.937)" style="fill:#231815"/>
            <path data-name="패스 8" d="m84.247 39.093 3.079-7.239a5.611 5.611 0 0 1 5.164-3.415h5.045l-8.818 21.247z" transform="translate(-48.272 -16.294)" style="fill:#ffc800"/>
            <path data-name="패스 9" d="M18.932 22.925c.809-1.871 1.576-3.485 2.187-5.156a2.659 2.659 0 0 0-.175-1.7c-1.013-2.6-2.1-5.172-3.147-7.761-1.323-3.281-.085-6.555 2.943-7.832 3.1-1.308 6.3.116 7.689 3.491 2.322 5.627 4.594 11.273 6.907 16.9 1.443 3.511 2.926 7.007 4.383 10.512.24.577.433 1.173.735 2h-4.29c-2.387 0-4.775-.041-7.161 0a1.23 1.23 0 0 1-1.4-.942c-.524-1.462-1.159-2.884-1.864-4.6-.73 1.668-1.42 3.092-1.974 4.567a1.445 1.445 0 0 1-1.636 1.057q-5.161-.1-10.325-.081a1.292 1.292 0 0 1-1.431-.929C7.09 24.308 3.741 16.183.463 8.03A5.685 5.685 0 0 1 3.521.472a5.652 5.652 0 0 1 7.557 3.262c2.41 5.788 4.75 11.605 7.119 17.41.207.507.418 1.012.735 1.781"/>
            <path data-name="패스 10" d="M45.884 9.332a4.714 4.714 0 0 1-4.747-4.554 4.787 4.787 0 0 1 4.693-4.78 4.713 4.713 0 0 1 4.643 4.662 4.641 4.641 0 0 1-4.589 4.67"/>
            <path data-name="사각형 6" transform="translate(9.871 36.432)" style="fill:#ffc800" d="M0 0h29.928v1.822H0z"/>
        </g>
    </g>
</svg>
