<svg xmlns="http://www.w3.org/2000/svg" width="30" height="30" viewBox="0 0 30 30">
    <g data-name="그룹 44696">
        <g data-name="그룹 44695">
            <path data-name="패스 34304" d="m84.247 33.907 1.58-3.716a2.88 2.88 0 0 1 2.65-1.753h2.59l-4.526 10.906z" transform="translate(-63.779 -16.205)" style="fill:#ffc800"/>
            <path data-name="패스 34305" d="M11.718 17.767c.415-.96.809-1.789 1.122-2.646a1.365 1.365 0 0 0-.09-.87c-.519-1.335-1.079-2.651-1.614-3.984a2.965 2.965 0 0 1 1.51-4.02 2.931 2.931 0 0 1 3.946 1.792c1.192 2.888 2.358 5.786 3.545 8.676.741 1.8 1.5 3.6 2.25 5.4.123.3.222.6.377 1.026h-2.2c-1.225 0-2.451-.021-3.676 0a.632.632 0 0 1-.718-.484c-.269-.75-.6-1.48-.957-2.362-.375.856-.729 1.587-1.013 2.344a.742.742 0 0 1-.839.543q-2.649-.05-5.3-.041a.663.663 0 0 1-.735-.477c-1.687-4.187-3.405-8.358-5.088-12.542a2.918 2.918 0 0 1 1.57-3.879 2.9 2.9 0 0 1 3.879 1.674c1.237 2.971 2.438 5.957 3.654 8.936.106.26.214.52.377.914"/>
            <path data-name="패스 34306" d="M25.55 10.791a2.42 2.42 0 0 1-2.437-2.338 2.457 2.457 0 0 1 2.41-2.455 2.419 2.419 0 0 1 2.383 2.4 2.382 2.382 0 0 1-2.356 2.4"/>
        </g>
    </g>
</svg>
