<svg xmlns="http://www.w3.org/2000/svg" width="30" height="30" viewBox="0 0 30 30">
    <g data-name="그룹 44694">
        <g data-name="그룹 44688">
            <path data-name="패스 33703" d="M9.812 17.946a.561.561 0 0 1-.415-.184l-7.9-8.7a5.429 5.429 0 0 1 .013-7.5 5.09 5.09 0 0 1 7.343 0l.958.987.958-.987a5.091 5.091 0 0 1 7.344 0 5.433 5.433 0 0 1 0 7.516l-7.887 8.682a.561.561 0 0 1-.415.184M5.183 1.122a3.97 3.97 0 0 0-2.867 1.224 4.3 4.3 0 0 0 0 5.953l7.5 8.252L17.3 8.313a4.309 4.309 0 0 0 .013-5.966 3.968 3.968 0 0 0-5.734 0l-1.361 1.4a.561.561 0 0 1-.8 0l-1.36-1.4a3.97 3.97 0 0 0-2.875-1.225m5.99.834z" transform="translate(5 6)" style="fill:#050e21"/>
        </g>
    </g>
</svg>
