<svg xmlns="http://www.w3.org/2000/svg" xmlns:xlink="http://www.w3.org/1999/xlink" width="48" height="48" viewBox="0 0 48 48">
  <defs>
    <linearGradient id="linear-gradient" x1="0.625" x2="0.146" y2="0.943" gradientUnits="objectBoundingBox">
      <stop offset="0" stop-color="#3c47ec"/>
      <stop offset="0" stop-color="#5344de"/>
      <stop offset="0.491" stop-color="#e63286"/>
      <stop offset="0.729" stop-color="#f04946"/>
      <stop offset="1" stop-color="#eec163"/>
    </linearGradient>
  </defs>
  <g id="그룹_45822" data-name="그룹 45822" transform="translate(0.001 0.031)">
    <rect id="사각형_4012" data-name="사각형 4012" width="48" height="48" rx="8" transform="translate(-0.001 -0.031)" fill="url(#linear-gradient)"/>
    <g id="그룹_28423" data-name="그룹 28423" transform="translate(9.229 9.201)">
      <g id="사각형_43486" data-name="사각형 43486" opacity="0">
        <rect id="사각형_43486-2" data-name="사각형 43486" width="30" height="30" transform="translate(-0.231 -0.232)" fill="#fff"/>
        <path id="사각형_43486_-_윤곽선" data-name="사각형 43486 - 윤곽선" d="M1,1V29H29V1H1M0,0H30V30H0Z" transform="translate(-0.231 -0.232)" fill="#707070"/>
      </g>
      <path id="패스_35228" data-name="패스 35228" d="M13-19.729q2.158,0,2.844.013t1.549.063a6.5,6.5,0,0,1,1.244.14,2.512,2.512,0,0,1,.762.292,2.343,2.343,0,0,1,.66.3,4.949,4.949,0,0,1,.584.457,3.317,3.317,0,0,1,.457.559,2.873,2.873,0,0,1,.3.686q.076.279.2.749a6.641,6.641,0,0,1,.178,1.257q.025.838.038,1.536t.013,2.831q0,2.158-.013,2.856t-.038,1.536a5.524,5.524,0,0,1-.114,1.257,3.147,3.147,0,0,1-.267.749,3.01,3.01,0,0,1-.33.66q-.2.3-.432.584a3.317,3.317,0,0,1-.559.457,2.873,2.873,0,0,1-.686.3q-.279.076-.762.2a6.811,6.811,0,0,1-1.244.178q-.863.051-1.549.051H10.156q-.686,0-1.549-.051a5.555,5.555,0,0,1-1.244-.114A3.134,3.134,0,0,1,6.6-2.437a3.4,3.4,0,0,1-.66-.317A4.094,4.094,0,0,1,5.357-3.2,3.317,3.317,0,0,1,4.9-3.758a2.873,2.873,0,0,1-.3-.686q-.1-.279-.241-.749a5.9,5.9,0,0,1-.19-1.257q-.025-.838-.038-1.536t-.013-2.856q0-2.133.013-2.831t.038-1.536a7.607,7.607,0,0,1,.165-1.257,3.147,3.147,0,0,1,.267-.749,2.623,2.623,0,0,1,.33-.673q.2-.292.432-.571a2.838,2.838,0,0,1,.559-.482,2.32,2.32,0,0,1,.686-.279,5.828,5.828,0,0,1,.762-.267,5.213,5.213,0,0,1,1.244-.165q.863,0,1.549-.038T13-19.729Zm0-1.93H10.118q-.7,0-1.562.051a9.1,9.1,0,0,0-1.5.152,6.525,6.525,0,0,0-1.143.33q-.533.254-1.028.521a3.675,3.675,0,0,0-.927.724,4.593,4.593,0,0,0-.736.939,9.47,9.47,0,0,0-.508,1.016A8.316,8.316,0,0,0,2.4-16.783a10.3,10.3,0,0,0-.19,1.5q-.025.863-.038,1.562t-.013,2.882q0,2.209.013,2.907T2.209-6.4a11.049,11.049,0,0,0,.178,1.5,7.3,7.3,0,0,0,.33,1.168,7.752,7.752,0,0,0,.508.99,6.656,6.656,0,0,0,.736.965,5.546,5.546,0,0,0,.9.736,4.863,4.863,0,0,0,1.054.508q.482.152,1.13.292a10.037,10.037,0,0,0,1.511.19q.863.025,1.562.038T13,0q2.184,0,2.882-.013t1.562-.038a12.831,12.831,0,0,0,1.5-.165,5.884,5.884,0,0,0,1.143-.317q.533-.254,1-.533a6.171,6.171,0,0,0,.952-.711,5.216,5.216,0,0,0,.749-.927,5.5,5.5,0,0,0,.5-1.028A8.316,8.316,0,0,0,23.6-4.875a10.37,10.37,0,0,0,.19-1.523q.025-.838.038-1.536t.013-2.907q0-2.184-.013-2.882t-.038-1.562a10.972,10.972,0,0,0-.178-1.473,7.3,7.3,0,0,0-.33-1.168,8.549,8.549,0,0,0-.508-1,5.457,5.457,0,0,0-.736-.952,3.23,3.23,0,0,0-.927-.736q-.5-.254-1.028-.508-.482-.152-1.13-.3a7.633,7.633,0,0,0-1.511-.178q-.863-.051-1.562-.051Zm0,5.307a5.433,5.433,0,0,0-2.171.432,5.559,5.559,0,0,0-1.752,1.181A5.521,5.521,0,0,0,7.9-12.975a5.4,5.4,0,0,0-.432,2.133A5.369,5.369,0,0,0,7.9-8.7,5.714,5.714,0,0,0,9.077-6.932a5.456,5.456,0,0,0,1.752,1.193A5.433,5.433,0,0,0,13-5.307a5.433,5.433,0,0,0,2.171-.432,5.559,5.559,0,0,0,1.752-1.181A5.559,5.559,0,0,0,18.1-8.671a5.433,5.433,0,0,0,.432-2.171A5.46,5.46,0,0,0,18.1-13a5.374,5.374,0,0,0-1.181-1.752,5.67,5.67,0,0,0-1.752-1.168A5.433,5.433,0,0,0,13-16.352Zm0,9.141a3.518,3.518,0,0,1-2.564-1.054,3.484,3.484,0,0,1-1.066-2.577,3.5,3.5,0,0,1,1.066-2.564A3.5,3.5,0,0,1,13-14.473a3.5,3.5,0,0,1,2.564,1.066,3.5,3.5,0,0,1,1.066,2.564,3.484,3.484,0,0,1-1.066,2.577A3.518,3.518,0,0,1,13-7.211Zm7.084-9.42a1.247,1.247,0,0,1-.381.914,1.247,1.247,0,0,1-.914.381,1.247,1.247,0,0,1-.914-.381,1.247,1.247,0,0,1-.381-.914,1.247,1.247,0,0,1,.381-.914,1.247,1.247,0,0,1,.914-.381,1.247,1.247,0,0,1,.914.381A1.247,1.247,0,0,1,20.084-16.631Z" transform="translate(1.769 25.767)" fill="#fff"/>
    </g>
  </g>
</svg>
