<svg xmlns="http://www.w3.org/2000/svg" width="205" height="80" viewBox="0 0 205 80">
    <defs>
        <clipPath id="i1l0izxgia">
            <path data-name="사각형 7" style="fill:none" d="M0 0h200v52.415H0z"/>
        </clipPath>
    </defs>
    <g data-name="그룹 43562">
        <g data-name="그룹 3" transform="translate(5 14)" style="clip-path:url(#i1l0izxgia)">
            <path data-name="패스 4" d="M134.826 39.357a.969.969 0 0 1 .228-.758 1.19 1.19 0 0 1 .758-.189H167.8a1.191 1.191 0 0 1 .757.189.971.971 0 0 1 .228.758v4.433a.968.968 0 0 1-.228.758 1.184 1.184 0 0 1-.757.19h-12.359v7.352a.971.971 0 0 1-.227.758 1.191 1.191 0 0 1-.758.19h-5.306a1.189 1.189 0 0 1-.758-.19.971.971 0 0 1-.227-.758v-7.352h-12.354a1.182 1.182 0 0 1-.758-.19.966.966 0 0 1-.228-.758zm17.015-22.662a25.064 25.064 0 0 1 6.9.815 13.635 13.635 0 0 1 4.547 2.16 8.021 8.021 0 0 1 2.52 3.107 9 9 0 0 1 0 7.314 8.014 8.014 0 0 1-2.52 3.107 13.613 13.613 0 0 1-4.547 2.16 29.588 29.588 0 0 1-13.794 0A13.6 13.6 0 0 1 140.4 33.2a8 8 0 0 1-2.519-3.107 8.994 8.994 0 0 1 0-7.314 8.008 8.008 0 0 1 2.519-3.109 13.622 13.622 0 0 1 4.548-2.16 25.054 25.054 0 0 1 6.9-.815m0 13.377q1.4 0 2.767-.133a9.789 9.789 0 0 0 2.443-.531 4.373 4.373 0 0 0 1.744-1.118 2.931 2.931 0 0 0 0-3.714 4.379 4.379 0 0 0-1.744-1.118 9.841 9.841 0 0 0-2.443-.531q-1.365-.132-2.767-.133t-2.766.133a9.84 9.84 0 0 0-2.444.531 4.379 4.379 0 0 0-1.744 1.118 2.933 2.933 0 0 0 0 3.714 4.373 4.373 0 0 0 1.744 1.118 9.787 9.787 0 0 0 2.444.531q1.364.133 2.766.133" transform="translate(-55.939 -6.927)" style="fill:#ffc800"/>
            <path data-name="패스 5" d="M205.056 41.785a2.981 2.981 0 0 0 .568 2.009 2.61 2.61 0 0 0 2.085.606q2.8-.075 5.476-.208t5.513-.4a.807.807 0 0 1 .721.132 1.5 1.5 0 0 1 .265.777l.379 4.4q.075.569-.19.72a2.327 2.327 0 0 1-.8.228q-3.753.3-7.314.474t-7.2.171q-3.638 0-5.21-1.952T197.78 42.5V31.591a.968.968 0 0 1 .228-.758 1.187 1.187 0 0 1 .758-.189h11.483a1.186 1.186 0 0 0 .758-.19.971.971 0 0 0 .227-.758v-3.94a2.476 2.476 0 0 0-.493-1.857 2.242 2.242 0 0 0-1.478-.417h-10.5a1.187 1.187 0 0 1-.758-.19.966.966 0 0 1-.228-.758V18.29a.968.968 0 0 1 .228-.758 1.191 1.191 0 0 1 .758-.189H213.2a7.83 7.83 0 0 1 2.463.341 3.473 3.473 0 0 1 1.649 1.118 4.936 4.936 0 0 1 .909 2.008 13.626 13.626 0 0 1 .284 3.013v12.013a.968.968 0 0 1-.228.758 1.186 1.186 0 0 1-.758.19h-11.478a1.2 1.2 0 0 0-.758.189.97.97 0 0 0-.227.758zm18.568 10.8a1.189 1.189 0 0 1-.758-.19.968.968 0 0 1-.228-.758V18.29a.97.97 0 0 1 .228-.758 1.193 1.193 0 0 1 .758-.189h5.305a1.194 1.194 0 0 1 .758.189.97.97 0 0 1 .228.758v33.348a.968.968 0 0 1-.228.758 1.19 1.19 0 0 1-.758.19z" transform="translate(-82.059 -7.196)" style="fill:#ffc800"/>
            <path data-name="패스 6" d="M265.67 36.771a1.191 1.191 0 0 1-.758-.19.968.968 0 0 1-.228-.758v-4.775a.966.966 0 0 1 .228-.757 1.191 1.191 0 0 1 .758-.19h5.078a1.189 1.189 0 0 1 .758.19.966.966 0 0 1 .227.757v4.776a.968.968 0 0 1-.227.758 1.189 1.189 0 0 1-.758.19zm0 15.158a1.188 1.188 0 0 1-.758-.189.969.969 0 0 1-.228-.758v-4.775a.97.97 0 0 1 .228-.758 1.2 1.2 0 0 1 .758-.189h5.078a1.193 1.193 0 0 1 .758.189.97.97 0 0 1 .227.758v4.774a.969.969 0 0 1-.227.758 1.186 1.186 0 0 1-.758.189z" transform="translate(-109.817 -12.489)" style="fill:#231815"/>
            <path data-name="패스 7" d="M283.791 40a.966.966 0 0 1 .228-.758 1.187 1.187 0 0 1 .758-.19h31.983a1.19 1.19 0 0 1 .758.19.968.968 0 0 1 .228.758v4.434a.967.967 0 0 1-.228.758 1.186 1.186 0 0 1-.758.19h-5.533v6.973a.968.968 0 0 1-.228.758 1.19 1.19 0 0 1-.758.19h-5.305a1.188 1.188 0 0 1-.758-.19.968.968 0 0 1-.228-.758v-6.97h-6.366v6.973a.968.968 0 0 1-.227.758 1.191 1.191 0 0 1-.758.19h-5.305a1.187 1.187 0 0 1-.758-.19.968.968 0 0 1-.228-.758v-6.973h-5.533a1.183 1.183 0 0 1-.758-.19.965.965 0 0 1-.228-.758zm31.529-8.6a4.848 4.848 0 0 1-1.02 3.45 4.076 4.076 0 0 1-3.069 1.061h-20.96a4.075 4.075 0 0 1-3.071-1.061 4.848 4.848 0 0 1-1.023-3.448V18.29a.97.97 0 0 1 .228-.758 1.192 1.192 0 0 1 .758-.189h4.927a1.2 1.2 0 0 1 .758.189.97.97 0 0 1 .227.758v2.956h15.348V18.29a.97.97 0 0 1 .228-.758 1.191 1.191 0 0 1 .758-.189h4.926a1.194 1.194 0 0 1 .758.189.97.97 0 0 1 .228.758zm-8-1.44a1.176 1.176 0 0 0 .871-.246 1.475 1.475 0 0 0 .228-.967v-1.552h-15.344v1.554a1.475 1.475 0 0 0 .227.967 1.178 1.178 0 0 0 .872.246z" transform="translate(-117.745 -7.196)" style="fill:#231815"/>
            <path data-name="패스 8" d="m84.247 43.037 4.219-9.919a7.688 7.688 0 0 1 7.075-4.68h6.913L90.372 57.552z" transform="translate(-34.954 -11.799)" style="fill:#ffc800"/>
            <path data-name="패스 9" d="M25.941 31.412c1.109-2.563 2.159-4.775 3-7.064a3.643 3.643 0 0 0-.24-2.323c-1.388-3.564-2.881-7.086-4.312-10.634-1.813-4.5-.116-8.982 4.033-10.731 4.251-1.793 8.627.159 10.535 4.784 3.181 7.71 6.295 15.447 9.464 23.161 1.977 4.811 4.01 9.6 6 14.4.329.791.594 1.608 1.008 2.738h-5.878c-3.271-.006-6.543-.056-9.812 0a1.686 1.686 0 0 1-1.918-1.291c-.717-2-1.589-3.951-2.553-6.306-1 2.285-1.945 4.237-2.7 6.258a1.98 1.98 0 0 1-2.241 1.449q-7.072-.134-14.147-.111a1.771 1.771 0 0 1-1.961-1.273C9.714 33.306 5.126 22.173.634 11A7.789 7.789 0 0 1 4.824.647a7.745 7.745 0 0 1 10.355 4.47c3.3 7.93 6.508 15.9 9.755 23.855.284.695.572 1.387 1.007 2.44"/>
            <path data-name="패스 10" d="M62.869 12.788a6.459 6.459 0 0 1-6.5-6.24 6.559 6.559 0 0 1 6.426-6.549 6.458 6.458 0 0 1 6.362 6.388 6.359 6.359 0 0 1-6.288 6.4"/>
            <path data-name="사각형 6" transform="translate(13.525 49.919)" style="fill:#ffc800" d="M0 0h41.006v2.496H0z"/>
        </g>
    </g>
</svg>
