<svg xmlns="http://www.w3.org/2000/svg" width="30" height="30" viewBox="0 0 30 30">
    <g data-name="그룹 44692">
        <g data-name="그룹 44685">
            <path data-name="패스 34301" d="M94.607 112.121H77.658a.748.748 0 0 1 0-1.5h16.949a.748.748 0 0 1 0 1.5" transform="translate(-70.91 -102.625)" style="fill:#303030"/>
            <path data-name="패스 34302" d="M94.607 139.163H77.658a.748.748 0 1 1 0-1.5h16.949a.748.748 0 1 1 0 1.5" transform="translate(-70.91 -122.927)" style="fill:#303030"/>
            <path data-name="패스 34303" d="M94.607 166.121H77.658a.748.748 0 1 1 0-1.5h16.949a.748.748 0 0 1 0 1.5" transform="translate(-70.91 -143.165)" style="fill:#303030"/>
        </g>
    </g>
</svg>
