<svg xmlns="http://www.w3.org/2000/svg" width="48" height="48" viewBox="0 0 48 48">
    <g data-name="그룹 43680">
        <g data-name="그룹 43681">
            <path data-name="패스 14" d="M18.159 13.632a7.076 7.076 0 0 1-7.3-6.815A7.077 7.077 0 0 1 18.159 0a7.076 7.076 0 0 1 7.295 6.817 7.075 7.075 0 0 1-7.295 6.815m0-12.138a5.526 5.526 0 0 0-5.7 5.323 5.525 5.525 0 0 0 5.7 5.321 5.524 5.524 0 0 0 5.7-5.321 5.525 5.525 0 0 0-5.7-5.323" transform="translate(5.842 12.479)" style="fill:#303030"/>
            <path data-name="패스 15" d="M19.791 59.5a.775.775 0 0 1-.8-.747c0-4.48-3.9-8.124-8.695-8.124s-8.7 3.645-8.7 8.124a.775.775 0 0 1-.8.747.775.775 0 0 1-.8-.747c0-5.3 4.62-9.618 10.3-9.618s10.294 4.318 10.294 9.622a.775.775 0 0 1-.8.747" transform="translate(13.705 -23.983)" style="fill:#303030"/>
        </g>
    </g>
</svg>
