<svg data-name="그룹 43612" xmlns="http://www.w3.org/2000/svg" width="64" height="64" viewBox="0 0 64 64">
    <g data-name="그룹 43608">
        <path data-name="패스 33709" d="M21.892 50.707a6.566 6.566 0 0 1-4.645-2.081c-4.318-4.191-1.444-10.849-.461-12.79.321-.632.842-1.607 1.551-2.9a1.3 1.3 0 0 0-1.137-1.924H7.023C6.643 31.015 3 31 1.1 28.383-.237 26.555-.354 24.038.747 20.9c1.58-4.516 4.892-11.558 6.305-14.566l.093-.2A10.421 10.421 0 0 1 12.737.758 10.579 10.579 0 0 1 16.641 0h21.381a1.41 1.41 0 0 1 1.41 1.41v28.233a1.408 1.408 0 0 1-.252.8L27.035 47.908a6.437 6.437 0 0 1-3.535 2.58 6.1 6.1 0 0 1-1.608.22M7.01 28.193H17.2a4.118 4.118 0 0 1 3.608 6.1 115.07 115.07 0 0 0-1.508 2.815c-.543 1.073-3.1 6.57-.09 9.494a3.54 3.54 0 0 0 3.545 1.164 3.625 3.625 0 0 0 1.966-1.47L36.612 29.2V2.819H16.641a7.822 7.822 0 0 0-2.88.566A7.618 7.618 0 0 0 9.7 7.333l-.094.2c-1.395 2.968-4.662 9.919-6.2 14.3-.776 2.209-.787 3.853-.033 4.886 1.088 1.493 3.562 1.471 3.6 1.472h.037" transform="translate(6.999 7)" style="fill:#ffc800"/>
        <path data-name="패스 33710" d="M64.633 31.012H53.356a1.41 1.41 0 0 1-1.41-1.41V1.41A1.409 1.409 0 0 1 53.356 0h11.277a1.41 1.41 0 0 1 1.41 1.41V29.6a1.41 1.41 0 0 1-1.41 1.41m-9.867-2.819h8.458V2.819h-8.459z" transform="translate(-8.334 7)" style="fill:#ffc800"/>
    </g>
</svg>
