<svg data-name="그룹 43609" xmlns="http://www.w3.org/2000/svg" width="64" height="64" viewBox="0 0 64 64">
    <g data-name="그룹 43605">
        <path data-name="패스 33697" d="M39.469 69.579H5.832A5.879 5.879 0 0 1 0 63.808a1.41 1.41 0 0 1 2.819 0 3.022 3.022 0 0 0 3.013 2.952H38.06v-7.894a1.41 1.41 0 0 1 2.819 0v9.3a1.41 1.41 0 0 1-1.41 1.41" transform="translate(11.561 -11.269)" style="fill:#ffc800"/>
        <path data-name="패스 33698" d="M1.41 65.837A1.41 1.41 0 0 1 0 64.427a5.879 5.879 0 0 1 5.832-5.771h33.637a1.41 1.41 0 0 1 0 2.82H5.832a3.022 3.022 0 0 0-3.012 2.951 1.41 1.41 0 0 1-1.41 1.41" transform="translate(11.561 -11.624)" style="fill:#ffc800"/>
        <path data-name="패스 33699" d="M1.41 49.632A1.41 1.41 0 0 1 0 48.223V10.717a6.077 6.077 0 0 1 6.078-6.061h33.391a1.41 1.41 0 0 1 1.41 1.41V43.28a1.41 1.41 0 1 1-2.819 0V7.475H6.078a3.254 3.254 0 0 0-3.259 3.242v37.506a1.41 1.41 0 0 1-1.41 1.41" transform="translate(11.561 4.317)" style="fill:#ffc800"/>
        <path data-name="패스 33700" d="M13.41 45.126a1.41 1.41 0 0 1-1.41-1.41V7.066a1.41 1.41 0 1 1 2.819 0v36.65a1.41 1.41 0 0 1-1.41 1.41" transform="translate(8.019 4.021)" style="fill:#ffc800"/>
        <path data-name="패스 33701" d="M40.5 2v15.824l-4.578-3.9-4.483 3.9L31.341 2z" transform="translate(2.31 5.101)" style="fill:#ffc800"/>
        <path data-name="패스 33702" d="M39.908 18.643a1.41 1.41 0 0 1-.914-.336L35.339 15.2l-3.569 3.1a1.409 1.409 0 0 1-2.334-1.055l-.1-15.824A1.41 1.41 0 0 1 30.751 0h9.157a1.41 1.41 0 0 1 1.41 1.41v15.823a1.409 1.409 0 0 1-1.41 1.41m-4.578-6.718a1.406 1.406 0 0 1 .914.337l2.256 1.92V2.819h-6.331l.068 11.337 2.163-1.885a1.405 1.405 0 0 1 .925-.346" transform="translate(2.9 5.691)" style="fill:#ffc800"/>
    </g>
</svg>
