<svg xmlns="http://www.w3.org/2000/svg" width="64" height="64" viewBox="0 0 64 64">
    <g data-name="그룹 43837">
        <path data-name="패스 34093" d="M39.305 36.9H30.02a1.279 1.279 0 0 1 0-2.558h9.285a1.279 1.279 0 0 1 0 2.558" transform="translate(-2.361 -2.381)" style="fill:#050e21"/>
        <path data-name="패스 34094" d="M47.324 44.766H1.279A1.28 1.28 0 0 1 0 43.487V16.553a1.271 1.271 0 0 1 .073-.426L5.465.853A1.279 1.279 0 0 1 6.671 0h35.262a1.279 1.279 0 0 1 1.206.853l5.391 15.274a1.272 1.272 0 0 1 .073.426v26.934a1.28 1.28 0 0 1-1.279 1.279M2.558 42.208h43.487V16.773L41.028 2.558H7.576L2.558 16.773z" transform="translate(8 10)" style="fill:#050e21"/>
        <path data-name="패스 34095" d="M47.324 26.442H1.279a1.279 1.279 0 1 1 0-2.558h46.045a1.279 1.279 0 1 1 0 2.558" transform="translate(8 1.39)" style="fill:#050e21"/>
        <path data-name="패스 34096" d="M37.279 17.832A1.28 1.28 0 0 1 36 16.553V1.279a1.279 1.279 0 1 1 2.558 0v15.274a1.28 1.28 0 0 1-1.279 1.279" transform="translate(-4.977 10)" style="fill:#050e21"/>
    </g>
</svg>
