<svg xmlns="http://www.w3.org/2000/svg" width="48" height="48" viewBox="0 0 48 48">
    <g data-name="그룹 43683">
        <g data-name="그룹 45486">
            <g data-name="그룹 45543">
                <g data-name="그룹 45486">
                    <g data-name="그룹 45488">
                        <path data-name="패스 35043" d="M.542 17.864a.543.543 0 0 1-.365-.131.445.445 0 0 1-.177-.349.354.354 0 0 1 .012-.092c.014-.056.028-.107.042-.156l1.234-2.316V9.5a6.208 6.208 0 0 1 .45-2.353 7.5 7.5 0 0 1 3.169-3.6 9.205 9.205 0 0 1 2.416-1.012l.53-.139V1.6A1.43 1.43 0 0 1 8.391.481 1.936 1.936 0 0 1 9.679 0h.045a1.939 1.939 0 0 1 1.292.464 1.445 1.445 0 0 1 .557 1.129v.8l.53.139a9.18 9.18 0 0 1 2.412 1.009 7.5 7.5 0 0 1 3.172 3.6 6.2 6.2 0 0 1 .45 2.351v5.32l1.233 2.315.043.158a.359.359 0 0 1 .012.086.431.431 0 0 1-.159.34.554.554 0 0 1-.373.146zm1.716-2.534-.807 1.578h16.538l-.994-1.891V9.4a5.464 5.464 0 0 0-.616-2.426 6.5 6.5 0 0 0-1.552-1.954 7.366 7.366 0 0 0-2.293-1.327 8.427 8.427 0 0 0-5.639 0A7.369 7.369 0 0 0 4.6 5.017a6.5 6.5 0 0 0-1.552 1.952 5.459 5.459 0 0 0-.616 2.416v5.625z" transform="translate(14 13)" style="stroke:#303030;stroke-width:.6px;fill:#303030"/>
                        <g data-name="패스 35044" style="fill:#303030">
                            <path d="M8.85 1.7H.916C.576 1.7.3 1.386.3 1 .3.614.576.3.916.3H8.85c.34 0 .616.314.616.7 0 .386-.276.7-.616.7z" style="stroke:none" transform="translate(18.815 33.399)"/>
                            <path d="M.916.6C.744.6.6.783.6 1c0 .217.144.4.316.4H8.85c.171 0 .316-.183.316-.4 0-.217-.145-.4-.316-.4H.916m0-.6H8.85c.506 0 .916.448.916 1s-.41 1-.916 1H.916C.41 2 0 1.552 0 1s.41-1 .916-1z" style="fill:#303030;stroke:none" transform="translate(18.815 33.399)"/>
                        </g>
                    </g>
                </g>
            </g>
        </g>
    </g>
</svg>
