<svg xmlns="http://www.w3.org/2000/svg" width="377" height="226" viewBox="0 0 377 226">
  <g id="그룹_45189" data-name="그룹 45189" transform="translate(0 -349)">
    <g id="사각형_55171" data-name="사각형 55171" transform="translate(0 349)" fill="#fff" stroke="#707070" stroke-width="1" opacity="0">
      <rect width="377" height="226" stroke="none"/>
      <rect x="0.5" y="0.5" width="376" height="225" fill="none"/>
    </g>
    <path id="패스_34476" data-name="패스 34476" d="M-7983.5-928h111" transform="translate(7983.499 1440)" fill="none" stroke="#a717c9" stroke-width="2" stroke-dasharray="4 4"/>
    <path id="패스_35186" data-name="패스 35186" d="M-7983.5-928h55.214" transform="translate(8303.499 1333)" fill="none" stroke="#a717c9" stroke-width="2" stroke-dasharray="4 4"/>
    <g id="그룹_45188" data-name="그룹 45188" transform="translate(32 365)">
      <path id="패스_34026" data-name="패스 34026" d="M-7983.5-928h119" transform="translate(8014.499 968)" fill="none" stroke="#ff9d2e" stroke-width="2"/>
      <path id="패스_34262" data-name="패스 34262" d="M-7983.5-928h121" transform="translate(8135.499 968)" fill="none" stroke="#ff5757" stroke-width="2"/>
      <g id="패스_34027" data-name="패스 34027" transform="translate(14 24)" fill="#fff">
        <path d="M 16 31 C 11.9933500289917 31 8.226519584655762 29.43972969055176 5.393400192260742 26.60659980773926 C 2.560270071029663 23.77347946166992 1 20.00665092468262 1 16 C 1 11.9933500289917 2.560270071029663 8.226519584655762 5.393400192260742 5.393400192260742 C 8.226519584655762 2.560270071029663 11.9933500289917 1 16 1 C 20.00665092468262 1 23.77347946166992 2.560270071029663 26.60659980773926 5.393400192260742 C 29.43972969055176 8.226519584655762 31 11.9933500289917 31 16 C 31 20.00665092468262 29.43972969055176 23.77347946166992 26.60659980773926 26.60659980773926 C 23.77347946166992 29.43972969055176 20.00665092468262 31 16 31 Z" stroke="none"/>
        <path d="M 16 2 C 12.26045989990234 2 8.744749069213867 3.456249237060547 6.100500106811523 6.100500106811523 C 3.456249237060547 8.744749069213867 2 12.26045989990234 2 16 C 2 19.73954010009766 3.456249237060547 23.2552490234375 6.100500106811523 25.89949989318848 C 8.744749069213867 28.54375076293945 12.26045989990234 30 16 30 C 19.73954010009766 30 23.2552490234375 28.54375076293945 25.89949989318848 25.89949989318848 C 28.54375076293945 23.2552490234375 30 19.73954010009766 30 16 C 30 12.26045989990234 28.54375076293945 8.744749069213867 25.89949989318848 6.100500106811523 C 23.2552490234375 3.456249237060547 19.73954010009766 2 16 2 M 16 0 C 24.8365592956543 0 32 7.163440704345703 32 16 C 32 24.8365592956543 24.8365592956543 32 16 32 C 7.163440704345703 32 0 24.8365592956543 0 16 C 0 7.163440704345703 7.163440704345703 0 16 0 Z" stroke="none" fill="#ffcb2e"/>
      </g>
      <circle id="타원_1038" data-name="타원 1038" cx="9" cy="9" r="9" transform="translate(21 31)" fill="#ffcb2e"/>
      <g id="패스_34027-2" data-name="패스 34027" transform="translate(134.957 24)" fill="#fff">
        <path d="M 16 31 C 11.9933500289917 31 8.226519584655762 29.43972969055176 5.393400192260742 26.60659980773926 C 2.560270071029663 23.77347946166992 1 20.00665092468262 1 16 C 1 11.9933500289917 2.560270071029663 8.226519584655762 5.393400192260742 5.393400192260742 C 8.226519584655762 2.560270071029663 11.9933500289917 1 16 1 C 20.00665092468262 1 23.77347946166992 2.560270071029663 26.60659980773926 5.393400192260742 C 29.43972969055176 8.226519584655762 31 11.9933500289917 31 16 C 31 20.00665092468262 29.43972969055176 23.77347946166992 26.60659980773926 26.60659980773926 C 23.77347946166992 29.43972969055176 20.00665092468262 31 16 31 Z" stroke="none"/>
        <path d="M 16 2 C 12.26045989990234 2 8.744749069213867 3.456249237060547 6.100500106811523 6.100500106811523 C 3.456249237060547 8.744749069213867 2 12.26045989990234 2 16 C 2 19.73954010009766 3.456249237060547 23.2552490234375 6.100500106811523 25.89949989318848 C 8.744749069213867 28.54375076293945 12.26045989990234 30 16 30 C 19.73954010009766 30 23.2552490234375 28.54375076293945 25.89949989318848 25.89949989318848 C 28.54375076293945 23.2552490234375 30 19.73954010009766 30 16 C 30 12.26045989990234 28.54375076293945 8.744749069213867 25.89949989318848 6.100500106811523 C 23.2552490234375 3.456249237060547 19.73954010009766 2 16 2 M 16 0 C 24.8365592956543 0 32 7.163440704345703 32 16 C 32 24.8365592956543 24.8365592956543 32 16 32 C 7.163440704345703 32 0 24.8365592956543 0 16 C 0 7.163440704345703 7.163440704345703 0 16 0 Z" stroke="none" fill="#ff9d2e"/>
      </g>
      <circle id="타원_1038-2" data-name="타원 1038" cx="9" cy="9" r="9" transform="translate(142 31)" fill="#ff9d2e"/>
      <g id="패스_34027-3" data-name="패스 34027" transform="translate(257 24)" fill="#fff">
        <path d="M 16 31 C 11.9933500289917 31 8.226519584655762 29.43972969055176 5.393400192260742 26.60659980773926 C 2.560270071029663 23.77347946166992 1 20.00665092468262 1 16 C 1 11.9933500289917 2.560270071029663 8.226519584655762 5.393400192260742 5.393400192260742 C 8.226519584655762 2.560270071029663 11.9933500289917 1 16 1 C 20.00665092468262 1 23.77347946166992 2.560270071029663 26.60659980773926 5.393400192260742 C 29.43972969055176 8.226519584655762 31 11.9933500289917 31 16 C 31 20.00665092468262 29.43972969055176 23.77347946166992 26.60659980773926 26.60659980773926 C 23.77347946166992 29.43972969055176 20.00665092468262 31 16 31 Z" stroke="none"/>
        <path d="M 16 2 C 12.26045989990234 2 8.744749069213867 3.456249237060547 6.100500106811523 6.100500106811523 C 3.456249237060547 8.744749069213867 2 12.26045989990234 2 16 C 2 19.73954010009766 3.456249237060547 23.2552490234375 6.100500106811523 25.89949989318848 C 8.744749069213867 28.54375076293945 12.26045989990234 30 16 30 C 19.73954010009766 30 23.2552490234375 28.54375076293945 25.89949989318848 25.89949989318848 C 28.54375076293945 23.2552490234375 30 19.73954010009766 30 16 C 30 12.26045989990234 28.54375076293945 8.744749069213867 25.89949989318848 6.100500106811523 C 23.2552490234375 3.456249237060547 19.73954010009766 2 16 2 M 16 0 C 24.8365592956543 0 32 7.163440704345703 32 16 C 32 24.8365592956543 24.8365592956543 32 16 32 C 7.163440704345703 32 0 24.8365592956543 0 16 C 0 7.163440704345703 7.163440704345703 0 16 0 Z" stroke="none" fill="#ff5757"/>
      </g>
      <circle id="타원_1038-3" data-name="타원 1038" cx="9" cy="9" r="9" transform="translate(264 31)" fill="#ff5757"/>
      <text id="_1._주의" data-name="1. 주의" transform="translate(30 13)" fill="#ffcb2e" font-size="14" font-family="Pretendard-SemiBold, Pretendard" font-weight="600"><tspan x="-18.872" y="0">1. 주의</tspan></text>
      <text id="_2._경고" data-name="2. 경고" transform="translate(151 13)" fill="#ff9d2e" font-size="14" font-family="Pretendard-Medium, Pretendard" font-weight="500"><tspan x="-19.81" y="0">2. 경고</tspan></text>
      <text id="_3._위험" data-name="3. 위험" transform="translate(273 13)" fill="#ff5757" font-size="14" font-family="Pretendard-Medium, Pretendard" font-weight="500"><tspan x="-20.02" y="0">3. 위험</tspan></text>
      <text id="단순_경고" data-name="단순 경고" transform="translate(30 83)" fill="#ffcb2e" font-size="16" font-family="Pretendard-Medium, Pretendard" font-weight="500"><tspan x="-29.6" y="0">단순 경고</tspan></text>
      <text id="_3일_등록제한" data-name="3일 등록제한" transform="translate(151 83)" fill="#ff9d2e" font-size="16" font-family="Pretendard-Medium, Pretendard" font-weight="500"><tspan x="-41.504" y="0">3일 등록제한</tspan></text>
      <text id="_6일_등록제한" data-name="6일 등록제한" transform="translate(272 83)" fill="#ff5757" font-size="16" font-family="Pretendard-Medium, Pretendard" font-weight="500"><tspan x="-41.504" y="0">6일 등록제한</tspan></text>
    </g>
    <g id="그룹_45187" data-name="그룹 45187" transform="translate(85 472)">
      <path id="패스_34334" data-name="패스 34334" d="M-7983.5-928h120" transform="translate(8025.499 968)" fill="none" stroke="#202020" stroke-width="2"/>
      <g id="패스_34027-4" data-name="패스 34027" transform="translate(26 24)" fill="#fff">
        <path d="M 16 31 C 11.9933500289917 31 8.226519584655762 29.43972969055176 5.393400192260742 26.60659980773926 C 2.560270071029663 23.77347946166992 1 20.00665092468262 1 16 C 1 11.9933500289917 2.560270071029663 8.226519584655762 5.393400192260742 5.393400192260742 C 8.226519584655762 2.560270071029663 11.9933500289917 1 16 1 C 20.00665092468262 1 23.77347946166992 2.560270071029663 26.60659980773926 5.393400192260742 C 29.43972969055176 8.226519584655762 31 11.9933500289917 31 16 C 31 20.00665092468262 29.43972969055176 23.77347946166992 26.60659980773926 26.60659980773926 C 23.77347946166992 29.43972969055176 20.00665092468262 31 16 31 Z" stroke="none"/>
        <path d="M 16 2 C 12.26045989990234 2 8.744749069213867 3.456249237060547 6.100500106811523 6.100500106811523 C 3.456249237060547 8.744749069213867 2 12.26045989990234 2 16 C 2 19.73954010009766 3.456249237060547 23.2552490234375 6.100500106811523 25.89949989318848 C 8.744749069213867 28.54375076293945 12.26045989990234 30 16 30 C 19.73954010009766 30 23.2552490234375 28.54375076293945 25.89949989318848 25.89949989318848 C 28.54375076293945 23.2552490234375 30 19.73954010009766 30 16 C 30 12.26045989990234 28.54375076293945 8.744749069213867 25.89949989318848 6.100500106811523 C 23.2552490234375 3.456249237060547 19.73954010009766 2 16 2 M 16 0 C 24.8365592956543 0 32 7.163440704345703 32 16 C 32 24.8365592956543 24.8365592956543 32 16 32 C 7.163440704345703 32 0 24.8365592956543 0 16 C 0 7.163440704345703 7.163440704345703 0 16 0 Z" stroke="none" fill="#a717c9"/>
      </g>
      <circle id="타원_1038-4" data-name="타원 1038" cx="9" cy="9" r="9" transform="translate(33 31)" fill="#a717c9"/>
      <g id="패스_34027-5" data-name="패스 34027" transform="translate(146 24)" fill="#fff">
        <path d="M 16 31 C 11.9933500289917 31 8.226519584655762 29.43972969055176 5.393400192260742 26.60659980773926 C 2.560270071029663 23.77347946166992 1 20.00665092468262 1 16 C 1 11.9933500289917 2.560270071029663 8.226519584655762 5.393400192260742 5.393400192260742 C 8.226519584655762 2.560270071029663 11.9933500289917 1 16 1 C 20.00665092468262 1 23.77347946166992 2.560270071029663 26.60659980773926 5.393400192260742 C 29.43972969055176 8.226519584655762 31 11.9933500289917 31 16 C 31 20.00665092468262 29.43972969055176 23.77347946166992 26.60659980773926 26.60659980773926 C 23.77347946166992 29.43972969055176 20.00665092468262 31 16 31 Z" stroke="none"/>
        <path d="M 16 2 C 12.26045989990234 2 8.744749069213867 3.456249237060547 6.100500106811523 6.100500106811523 C 3.456249237060547 8.744749069213867 2 12.26045989990234 2 16 C 2 19.73954010009766 3.456249237060547 23.2552490234375 6.100500106811523 25.89949989318848 C 8.744749069213867 28.54375076293945 12.26045989990234 30 16 30 C 19.73954010009766 30 23.2552490234375 28.54375076293945 25.89949989318848 25.89949989318848 C 28.54375076293945 23.2552490234375 30 19.73954010009766 30 16 C 30 12.26045989990234 28.54375076293945 8.744749069213867 25.89949989318848 6.100500106811523 C 23.2552490234375 3.456249237060547 19.73954010009766 2 16 2 M 16 0 C 24.8365592956543 0 32 7.163440704345703 32 16 C 32 24.8365592956543 24.8365592956543 32 16 32 C 7.163440704345703 32 0 24.8365592956543 0 16 C 0 7.163440704345703 7.163440704345703 0 16 0 Z" stroke="none" fill="#202020"/>
      </g>
      <circle id="타원_1038-5" data-name="타원 1038" cx="9" cy="9" r="9" transform="translate(153 31)" fill="#202020"/>
      <text id="_4._위험" data-name="4. 위험" transform="translate(42 13)" fill="#a717c9" font-size="14" font-family="Pretendard-Medium, Pretendard" font-weight="500"><tspan x="-20.09" y="0">4. 위험</tspan></text>
      <text id="_5._블락" data-name="5. 블락" transform="translate(162 13)" fill="#202020" font-size="14" font-family="Pretendard-Medium, Pretendard" font-weight="500"><tspan x="-19.894" y="0">5. 블락</tspan></text>
      <text id="_9일_등록제한" data-name="9일 등록제한" transform="translate(42 83)" fill="#a717c9" font-size="16" font-family="Pretendard-Medium, Pretendard" font-weight="500"><tspan x="-41.504" y="0">9일 등록제한</tspan></text>
      <text id="_15일_등록제한" data-name="15일 등록제한" transform="translate(162 83)" fill="#202020" font-size="16" font-family="Pretendard-Medium, Pretendard" font-weight="500"><tspan x="-44.944" y="0">15일 등록제한</tspan></text>
    </g>
  </g>
</svg>
