<svg xmlns="http://www.w3.org/2000/svg" width="28" height="28" viewBox="0 0 28 28">
    <defs>
        <clipPath id="svixp4t1sa">
            <path data-name="패스 34164" d="m6.538 39.2.034 1.525h9.32V39.2z" transform="translate(-6.538 -39.199)" style="fill:#f6bd93"/>
        </clipPath>
        <clipPath id="k4bxyznx4b">
            <path data-name="패스 34165" d="M6.808 0a.564.564 0 0 0-.193 1.094L4.522 7.013.9 3.18a.564.564 0 1 0-.331.108.542.542 0 0 0 .073-.008L2.4 13.7h9.372l1.605-10.541h.008a.571.571 0 1 0-.371-.141L9.4 6.91 7.012 1.09A.565.565 0 0 0 6.808 0z" transform="translate(0 .001)" style="fill:#f6bd93"/>
        </clipPath>
    </defs>
    <g data-name="그룹 45746">
        <g data-name="사각형 54534" transform="translate(2 2)" style="fill:#fff;stroke:#f6bd93;stroke-width:2px">
            <rect width="24" height="24" rx="12" style="stroke:none"/>
            <rect x="-1" y="-1" width="26" height="26" rx="13" style="fill:none"/>
        </g>
        <g data-name="그룹 44293">
            <g data-name="그룹 44290">
                <g data-name="그룹 44289" style="clip-path:url(#svixp4t1sa)" transform="translate(9.438 20.475)">
                    <path data-name="사각형 54535" transform="rotate(-45 .54 1.303)" style="fill:#f6bd93" d="M0 0h7.693v7.693H0z"/>
                </g>
            </g>
            <g data-name="그룹 44292">
                <g data-name="그룹 44291" transform="translate(7.024 6.001)" style="clip-path:url(#k4bxyznx4b)">
                    <path data-name="사각형 54536" transform="rotate(-45 4.845 11.697)" style="fill:#f6bd93" d="M0 0h19.555v19.555H0z"/>
                </g>
            </g>
        </g>
    </g>
</svg>
