<svg xmlns="http://www.w3.org/2000/svg" width="48" height="48" viewBox="0 0 48 48">
    <g data-name="그룹 45542">
        <path data-name="패스 34032" d="M21.769 22.716a.944.944 0 0 1-.671-.279l-5.627-5.663a10.232 10.232 0 0 1-5.194 2.151 8.956 8.956 0 0 1-7.5-2.767A9.465 9.465 0 0 1 16.158 2.772a9.467 9.467 0 0 1 .653 12.663l5.63 5.667a.946.946 0 0 1-.671 1.614zM9.465 1.893a7.572 7.572 0 0 0-5.354 12.926 7.12 7.12 0 0 0 5.962 2.223 8.254 8.254 0 0 0 4.746-2.223A7.572 7.572 0 0 0 9.465 1.893z" transform="translate(13 13)" style="fill:#303030"/>
    </g>
</svg>
