<svg data-name="구성 요소 55 – 1" xmlns="http://www.w3.org/2000/svg" width="48" height="48" viewBox="0 0 48 48">
    <g data-name="사각형 53920" style="fill:#fff;stroke:#e4e4e4;stroke-width:2px">
        <rect width="48" height="48" rx="8" style="stroke:none"/>
        <rect x="1" y="1" width="46" height="46" rx="7" style="fill:none"/>
    </g>
    <g data-name="그룹 43613">
        <path data-name="패스 33711" d="M16.532 29.331h-4.971a.772.772 0 0 1-.767-.69l-.36-3.388a11.237 11.237 0 0 1-3.746-2.165L3.571 24.47a.771.771 0 0 1-.981-.32L.1 19.845a.772.772 0 0 1 .214-1.01l2.757-2.008a10.732 10.732 0 0 1 0-4.324L.317 10.5A.772.772 0 0 1 .1 9.485L2.589 5.18a.771.771 0 0 1 .981-.32l3.117 1.384a11.236 11.236 0 0 1 3.746-2.165L10.794.69a.772.772 0 0 1 .767-.69h4.972a.772.772 0 0 1 .767.69l.36 3.388a11.242 11.242 0 0 1 3.746 2.165l3.117-1.383a.772.772 0 0 1 .982.32l2.485 4.305a.772.772 0 0 1-.214 1.01L25.019 12.5a10.732 10.732 0 0 1 0 4.324l2.757 2.008a.772.772 0 0 1 .214 1.01L25.5 24.15a.772.772 0 0 1-.982.32l-3.117-1.383a11.237 11.237 0 0 1-3.746 2.165L17.3 28.64a.772.772 0 0 1-.768.69m-4.277-1.544h3.583l.34-3.2a.771.771 0 0 1 .553-.66 9.669 9.669 0 0 0 3.992-2.307.772.772 0 0 1 .847-.149l2.944 1.307 1.791-3.1-2.605-1.9a.771.771 0 0 1-.3-.808 9.327 9.327 0 0 0 0-4.608.771.771 0 0 1 .3-.808l2.605-1.9-1.791-3.1-2.944 1.306a.772.772 0 0 1-.847-.149 9.669 9.669 0 0 0-3.992-2.31.772.772 0 0 1-.553-.66l-.34-3.2h-3.583l-.34 3.2a.773.773 0 0 1-.553.66A9.669 9.669 0 0 0 7.37 7.711a.772.772 0 0 1-.847.149L3.579 6.553l-1.791 3.1 2.605 1.9a.772.772 0 0 1 .295.808 9.327 9.327 0 0 0 0 4.608.771.771 0 0 1-.295.808l-2.605 1.9 1.791 3.1 2.944-1.307a.772.772 0 0 1 .847.149 9.669 9.669 0 0 0 3.992 2.307.773.773 0 0 1 .553.66zm1.791-7.446a5.675 5.675 0 1 1 5.675-5.675 5.682 5.682 0 0 1-5.675 5.675m0-9.807a4.132 4.132 0 1 0 4.132 4.132 4.136 4.136 0 0 0-4.132-4.132" transform="translate(9.953 9.334)" style="fill:#acacac"/>
    </g>
</svg>
