<svg xmlns="http://www.w3.org/2000/svg" width="25" height="25" viewBox="0 0 25 25">
  <g id="그룹_45163" data-name="그룹 45163" transform="translate(22686 15923)">
    <rect id="사각형_54699" data-name="사각형 54699" width="25" height="25" rx="8" transform="translate(-22686 -15923)" fill="#ffc800"/>
    <g id="그룹_44709" data-name="그룹 44709" transform="translate(-2089.519 -1517.313)">
      <path id="패스_34318" data-name="패스 34318" d="M24.681,26.647a7.308,7.308,0,0,1-3.7-1.007.458.458,0,1,1,.464-.789A6.408,6.408,0,1,0,19.5,15.561c-.1.143-.2.291-.295.441a.458.458,0,1,1-.782-.475c.1-.172.217-.342.336-.5a7.323,7.323,0,1,1,5.924,11.626" transform="translate(-20607.635 -14410.94)" fill="#313131"/>
      <path id="패스_34319" data-name="패스 34319" d="M39.761,39.612a1.852,1.852,0,1,1,1.852-1.852,1.854,1.854,0,0,1-1.852,1.852m0-2.788a.936.936,0,1,0,.936.936.937.937,0,0,0-.936-.936" transform="translate(-20622.713 -14429.377)" fill="#313131"/>
      <path id="패스_34320" data-name="패스 34320" d="M37.324.915H30.458a.458.458,0,1,1,0-.915h6.866a.458.458,0,1,1,0,.915" transform="translate(-20616.615 -14401.687)" fill="#313131"/>
      <path id="패스_34321" data-name="패스 34321" d="M34.211,28.626a.456.456,0,0,1-.355-.169l-2-2.46a.458.458,0,1,1,.71-.578l2,2.46a.458.458,0,0,1-.355.747" transform="translate(-20617.965 -14421.157)" fill="#313131"/>
      <path id="패스_34322" data-name="패스 34322" d="M44.458,3.708A.458.458,0,0,1,44,3.25V.542a.458.458,0,0,1,.915,0V3.25a.458.458,0,0,1-.458.458" transform="translate(-20627.41 -14401.751)" fill="#313131"/>
      <path id="패스_34323" data-name="패스 34323" d="M65.207,15.827a.458.458,0,0,1-.328-.777l1.373-1.411a.458.458,0,0,1,.656.639l-1.373,1.411a.457.457,0,0,1-.328.138" transform="translate(-20643.412 -14412.097)" fill="#313131"/>
      <path id="패스_34324" data-name="패스 34324" d="M5.95,36.915H.458a.458.458,0,0,1,0-.915H5.95a.458.458,0,1,1,0,.915" transform="translate(-20593.48 -14429.447)" fill="#313131"/>
      <path id="패스_34325" data-name="패스 34325" d="M10.577,48.915H6.458a.458.458,0,1,1,0-.915h4.12a.458.458,0,1,1,0,.915" transform="translate(-20598.107 -14438.701)" fill="#313131"/>
      <path id="패스_34326" data-name="패스 34326" d="M15.2,61H12.458a.458.458,0,1,1,0-.915H15.2a.458.458,0,1,1,0,.915" transform="translate(-20602.734 -14448.019)" fill="#313131"/>
    </g>
  </g>
</svg>
