<?xml version="1.0" encoding="UTF-8"?>
<svg id="_레이어_2" data-name="레이어 2" xmlns="http://www.w3.org/2000/svg" viewBox="0 0 41.93 41.96">
  <defs>
    <style>
      .cls-1 {
        stroke: #fff;
      }

      .cls-1, .cls-2 {
        fill: #f0a225;
      }

      .cls-1, .cls-2, .cls-3 {
        stroke-linecap: round;
        stroke-linejoin: round;
        stroke-width: 2px;
      }

      .cls-2, .cls-3 {
        stroke: #40210d;
      }

      .cls-3 {
        fill: #f5c520;
      }
    </style>
  </defs>
  <g id="MasterLayer_1" data-name="MasterLayer 1">
    <g>
      <path class="cls-2" d="M10.84,28.35c8.9,9.62,20.02,14.73,25.32,11.77l.06-.03c.16-.09,.31-.19,.46-.3,.11-.08,.21-.16,.31-.24h.01c.13-.09,.25-.16,.37-.25,.1-.07,.19-.15,.28-.22,3-4.16-6.59-11.3-8.7-9.86l-.63,.45-.37,.27-.46,.33c-.74,.53-1.68,.58-2.1,.13l-1.1-1.18c-.85-1.61-2.75-4.12-5.21-6.78-2.46-2.66-4.87-4.81-6.49-5.87l-1.07-1.16c-.42-.46-.17-1.26,.57-1.79l.14-.1,.32-.23,.59-.42,.54-.39,.07-.05C15.18,9.59,8.84,1.5,5.48,2.26l-.55,.39-.21,.15-.67,.48-.09,.07-.36,.26-.23,.16-.5,.36,.02,.03c-4.36,3.97-.94,14.58,7.96,24.19Z"/>
      <path class="cls-3" d="M15.2,11.4c1.95-1.4,1.82-4.43-.2-7-.15-.19-.31-.38-.48-.57C12.04,1.16,8.34,.21,6.24,1.71l-.76,.54c3.36-.76,9.71,7.33,8.28,10.18l1.45-1.03Z"/>
      <path class="cls-3" d="M37.81,38.95l.21-.15,1.52-1.09c2.1-1.5,1.8-4.88-.67-7.55-.17-.18-.34-.36-.52-.52-2.44-2.27-5.79-2.99-7.75-1.59l-1.52,1.09-.12,.09c2.1-1.45,11.69,5.7,8.7,9.86l.15-.13Z"/>
      <path class="cls-1" d="M3.8,6.37s-2.51,6.26,5.44,16.19"/>
      <path class="cls-1" d="M30.57,38.56s2.72,1.84,4.39-.37"/>
    </g>
  </g>
</svg>