<?xml version="1.0" encoding="UTF-8"?>
<svg id="_레이어_2" data-name="레이어 2" xmlns="http://www.w3.org/2000/svg" viewBox="0 0 37 37">
  <defs>
    <style>
      .cls-1 {
        stroke: #fff;
      }

      .cls-1, .cls-2 {
        fill: #f0a225;
      }

      .cls-1, .cls-2, .cls-3 {
        stroke-linecap: round;
        stroke-linejoin: round;
        stroke-width: 2px;
      }

      .cls-2, .cls-3 {
        stroke: #40210d;
      }

      .cls-3 {
        fill: #f5c520;
      }
    </style>
  </defs>
  <g id="MasterLayer_1" data-name="MasterLayer 1">
    <g>
      <path class="cls-2" d="M9.63,24.96c7.8,8.43,17.54,12.9,22.2,10.31l.05-.03c.14-.08,.27-.16,.4-.26,.09-.07,.18-.14,.27-.21h0c.11-.08,.22-.14,.32-.22,.08-.06,.16-.13,.24-.19,2.63-3.64-5.78-9.9-7.62-8.63l-.56,.4-.32,.23-.4,.29c-.65,.46-1.47,.51-1.84,.11l-.96-1.04c-.75-1.41-2.41-3.61-4.57-5.94-2.15-2.33-4.27-4.21-5.69-5.14l-.94-1.01c-.37-.4-.15-1.1,.5-1.57l.12-.09,.28-.2,.51-.37,.47-.34,.06-.05C13.43,8.52,7.87,1.44,4.92,2.1l-.48,.34-.18,.13-.59,.42-.08,.06-.32,.23-.2,.14-.44,.32,.02,.02c-3.82,3.48-.82,12.77,6.97,21.19Z"/>
      <path class="cls-3" d="M13.45,10.11c1.71-1.22,1.6-3.88-.18-6.13-.13-.17-.27-.33-.42-.5C10.68,1.14,7.43,.31,5.59,1.62l-.67,.48c2.94-.66,8.51,6.42,7.26,8.91l1.27-.9Z"/>
      <path class="cls-3" d="M33.26,34.24l.19-.13,1.33-.95c1.84-1.31,1.58-4.28-.59-6.61-.15-.16-.3-.31-.46-.46-2.14-1.98-5.08-2.62-6.79-1.4l-1.33,.95-.11,.08c1.84-1.27,10.25,4.99,7.62,8.63l.13-.12Z"/>
      <path class="cls-1" d="M3.45,5.7s-2.2,5.48,4.77,14.18"/>
      <path class="cls-1" d="M26.92,33.9s2.38,1.61,3.85-.32"/>
    </g>
  </g>
</svg>