<?xml version="1.0" encoding="UTF-8"?>
<svg id="_레이어_2" data-name="레이어 2" xmlns="http://www.w3.org/2000/svg" viewBox="0 0 25 25">
  <defs>
    <style>
      .cls-1 {
        stroke: #443122;
        stroke-miterlimit: 10;
        stroke-width: .5px;
      }

      .cls-1, .cls-2 {
        fill: #f4c21d;
      }
    </style>
  </defs>
  <g id="_레이어_3" data-name="레이어 3">
    <g>
      <path class="cls-2" d="M4.94,0h15.12C22.79,0,25,2.21,25,4.94v15.12c0,2.73-2.21,4.94-4.94,4.94H5C2.24,25,0,22.76,0,20V4.94C0,2.21,2.21,0,4.94,0Z"/>
      <g>
        <rect class="cls-1" x="2.88" y="10.52" width="5.6" height="10.27" rx=".99" ry=".99"/>
        <path class="cls-1" d="M9.48,18.73s0,.57,.37,.57h10.38c.05,0,.11-.01,.15-.04,.21-.12,.8-.52,.8-.99,0-.57-.12-.8-.5-1.03,0,0,.64-.1,.93-1.11,.06-.19,.06-.39,0-.58-.07-.27-.26-.66-.69-.93,0,0,.87-.11,1-1.26,0,0,.12-.68-.75-1.37,0,0,.37-.22,.63-.63,.23-.36,.24-.82,.04-1.2-.15-.28-.4-.62-.83-.92-.2-.14-.44-.21-.69-.21h-4.26s.75-1.6,.75-3.31-1-2.74-1.99-2.85c-.72-.08-1.17,.48-1.38,.81-.08,.13-.12,.27-.12,.42v1.53c0,.14-.05,.27-.14,.38l-2.85,3.37s-.87,.8-.87,1.6v7.76Z"/>
      </g>
    </g>
  </g>
</svg>