<?xml version="1.0" encoding="UTF-8"?>
<svg id="_레이어_2" data-name="레이어 2" xmlns="http://www.w3.org/2000/svg" viewBox="0 0 23 24">
  <defs>
    <style>
      .cls-1 {
        fill: #fff;
      }

      .cls-2 {
        fill: #ee775a;
      }

      .cls-3 {
        fill: #2c3e49;
      }

      .cls-4 {
        fill: #ecb753;
      }
    </style>
  </defs>
  <g id="_레이어_3" data-name="레이어 3">
    <g>
      <polygon class="cls-4" points="1.93 0 1.75 2.13 21.64 2.13 21.46 0 1.93 0"/>
      <polygon class="cls-4" points="23 24 21.64 2.13 1.75 2.13 0 24 23 24"/>
      <polygon class="cls-2" points="1.75 2.13 4.98 .89 1.93 0 21.46 0 19.13 .89 21.64 2.13 1.75 2.13"/>
      <path class="cls-3" d="M7.13,7.47c0,.74-.6,1.33-1.34,1.33s-1.34-.6-1.34-1.33,.6-1.33,1.34-1.33,1.34,.6,1.34,1.33Z"/>
      <path class="cls-3" d="M17.87,7.47c0,.74-.6,1.33-1.34,1.33s-1.34-.6-1.34-1.33,.6-1.33,1.34-1.33,1.34,.6,1.34,1.33Z"/>
      <path class="cls-1" d="M6.26,9.97c-.8-1.21-1-2.37-1.01-2.41h0c-.05-.29,.15-.57,.44-.62h0c.29-.05,.57,.14,.62,.44h0s0,.05,.03,.15h0c.03,.11,.07,.27,.13,.46h0c.13,.38,.34,.89,.68,1.39h0c.68,1,1.76,1.96,3.75,1.97h0c.11,0,.23,0,.35-.01h0c1.92-.12,3.01-.88,3.7-1.71h0c.69-.83,.94-1.75,1.01-2.09h0c.02-.1,.03-.14,.03-.14h0c.04-.29,.31-.5,.6-.46h0c.29,.04,.5,.3,.46,.6h0s-.15,1.15-.94,2.33h0c-.78,1.18-2.28,2.4-4.8,2.53h0c-.14,0-.28,.01-.41,.01h-.03c-2.36,0-3.83-1.25-4.62-2.44h0Z"/>
    </g>
  </g>
</svg>