<?xml version="1.0" encoding="UTF-8"?>
<svg id="_레이어_2" data-name="레이어 2" xmlns="http://www.w3.org/2000/svg" viewBox="0 0 41.95 41.99">
  <defs>
    <style>
      .cls-1 {
        fill: #f0a225;
        stroke: #40210d;
        stroke-miterlimit: 10;
      }

      .cls-2 {
        fill: #310304;
      }

      .cls-3 {
        fill: #f5c520;
        stroke: #41210d;
      }

      .cls-3, .cls-4, .cls-5, .cls-6, .cls-7 {
        stroke-linecap: round;
        stroke-linejoin: round;
      }

      .cls-3, .cls-5, .cls-6, .cls-7 {
        stroke-width: 2px;
      }

      .cls-4, .cls-5 {
        stroke: #fff;
      }

      .cls-4, .cls-5, .cls-6 {
        fill: none;
      }

      .cls-8 {
        fill: #e68c2a;
      }

      .cls-6 {
        stroke: #fef3f3;
      }

      .cls-7 {
        fill: #fbe0ab;
        stroke: #f6dca9;
      }
    </style>
  </defs>
  <g id="MasterLayer_1" data-name="MasterLayer 1">
    <g>
      <path class="cls-8" d="M28.68,2.42l.02,9.65,3.26-2.86s.62-.57,1.39,0,3.24,2.88,3.24,2.88l-.02-9.67h-7.89Z"/>
      <path class="cls-3" d="M38.62,1.47c-.52-.25-1.08-.4-1.66-.45-.15-.01-.3-.02-.45-.02H7.93c-2.45,0-4.44,1.74-4.44,3.88v1.94H1.81c-.45,0-.81,.32-.81,.71v3.56c0,.39,.36,.71,.81,.71h1.68v2.68H1.81c-.45,0-.81,.32-.81,.71v3.56c0,.39,.36,.71,.81,.71h1.68v2.68H1.81c-.45,0-.81,.32-.81,.71v3.56c0,.39,.36,.71,.81,.71h1.68v2.68H1.81c-.45,0-.81,.32-.81,.71v3.56c0,.39,.36,.71,.81,.71h1.68v2.33c0,2.14,1.99,3.88,4.44,3.88h28.57c.15,0,.3,0,.45-.02,.58-.05,1.14-.2,1.66-.45,.37-.18,.72-.4,1.02-.67,.84-.73,1.3-1.71,1.3-2.74V4.88c0-1.04-.46-2.01-1.3-2.74-.3-.27-.65-.49-1.02-.67Z"/>
      <path class="cls-1" d="M32.71,11.12c-.18-.16-.4-.27-.7-.25-.26,0-.51,.09-.69,.25l-3.26,2.86-.02-9.65h7.89l.02,9.67-3.24-2.88Z"/>
      <path class="cls-8" d="M1,7.53s.03-.75,.81-.71h1.68v4.99H1.81s-.77,.04-.81-.71,0-3.56,0-3.56Z"/>
      <path class="cls-8" d="M1,15.19s.03-.75,.81-.71h1.68v4.99H1.81s-.77,.04-.81-.71,0-3.56,0-3.56Z"/>
      <path class="cls-8" d="M.97,22.85s.03-.75,.81-.71h1.68v4.99H1.78s-.77,.04-.81-.71,0-3.56,0-3.56Z"/>
      <path class="cls-8" d="M4.78,22.85s-.03-.75-.81-.71h-1.68s0,4.99,0,4.99h1.68s.77,.04,.81-.71,0-3.56,0-3.56Z"/>
      <path class="cls-8" d="M1,30.5s.03-.75,.81-.71h1.68v4.99H1.81s-.77,.04-.81-.71,0-3.56,0-3.56Z"/>
      <path class="cls-8" d="M4.78,22.85s-.03-.75-.81-.71h-1.68s0,4.99,0,4.99h1.68s.77,.04,.81-.71,0-3.56,0-3.56Z"/>
      <path class="cls-8" d="M4.78,30.5s-.03-.75-.81-.71h-1.68s0,4.99,0,4.99h1.68s.77,.04,.81-.71,0-3.56,0-3.56Z"/>
      <path class="cls-8" d="M4.83,15.17s-.03-.75-.81-.71h-1.68s0,4.99,0,4.99h1.68s.77,.04,.81-.71,0-3.56,0-3.56Z"/>
      <path class="cls-8" d="M4.83,15.17s-.03-.75-.81-.71h-1.68s0,4.99,0,4.99h1.68s.77,.04,.81-.71,0-3.56,0-3.56Z"/>
      <path class="cls-8" d="M5.08,7.53s-.03-.75-.81-.71h-1.68s0,4.99,0,4.99h1.68s.77,.04,.81-.71,0-3.56,0-3.56Z"/>
      <rect class="cls-7" x="10.92" y="21.76" width="23.32" height="9.6"/>
      <path class="cls-2" d="M21.32,23.93v-1.59h2.42v1.59h-2.42Zm.01,7.01v-6.3h2.39v6.3h-2.39Z"/>
      <line class="cls-4" x1="1.88" y1="15.83" x2="1.88" y2="17.99"/>
      <line class="cls-4" x1="1.78" y1="23.64" x2="1.78" y2="25.8"/>
      <line class="cls-4" x1="1.88" y1="31.18" x2="1.88" y2="33.33"/>
      <line class="cls-4" x1="1.78" y1="8.11" x2="1.78" y2="10.27"/>
      <path class="cls-5" d="M9.17,9.1v-2.65c0-.87,.8-1.57,1.8-1.57h5.7"/>
      <line class="cls-6" x1="24.27" y1="37.37" x2="36.49" y2="37.28"/>
    </g>
  </g>
</svg>