<?xml version="1.0" encoding="UTF-8"?>
<svg id="_레이어_2" data-name="레이어 2" xmlns="http://www.w3.org/2000/svg" viewBox="0 0 36.95 37">
  <defs>
    <style>
      .cls-1 {
        fill: #f0a225;
        stroke: #40210d;
        stroke-miterlimit: 10;
      }

      .cls-2 {
        fill: #310304;
      }

      .cls-3 {
        fill: #f5c520;
        stroke: #41210d;
      }

      .cls-3, .cls-4, .cls-5, .cls-6, .cls-7 {
        stroke-linecap: round;
        stroke-linejoin: round;
      }

      .cls-3, .cls-5, .cls-6, .cls-7 {
        stroke-width: 2px;
      }

      .cls-4, .cls-5 {
        stroke: #fff;
      }

      .cls-4, .cls-5, .cls-6 {
        fill: none;
      }

      .cls-8 {
        fill: #e68c2a;
      }

      .cls-6 {
        stroke: #fef3f3;
      }

      .cls-7 {
        fill: #fbe0ab;
        stroke: #f6dca9;
      }
    </style>
  </defs>
  <g id="MasterLayer_1" data-name="MasterLayer 1">
    <g>
      <path class="cls-8" d="M25.22,2.24l.02,8.45,2.85-2.51s.54-.5,1.21,0,2.84,2.52,2.84,2.52l-.02-8.46h-6.9Z"/>
      <path class="cls-3" d="M33.92,1.41c-.45-.21-.94-.35-1.46-.39-.13-.01-.26-.02-.4-.02H7.07c-2.14,0-3.89,1.52-3.89,3.4v1.69H1.71c-.39,0-.71,.28-.71,.62v3.12c0,.34,.32,.62,.71,.62h1.47v2.34H1.71c-.39,0-.71,.28-.71,.62v3.12c0,.34,.32,.62,.71,.62h1.47v2.34H1.71c-.39,0-.71,.28-.71,.62v3.12c0,.34,.32,.62,.71,.62h1.47v2.34H1.71c-.39,0-.71,.28-.71,.62v3.12c0,.34,.32,.62,.71,.62h1.47v2.04c0,1.87,1.74,3.4,3.89,3.4h25c.13,0,.27,0,.4-.02,.51-.04,1-.18,1.46-.39,.33-.15,.63-.35,.9-.59,.73-.64,1.14-1.49,1.14-2.4V4.4c0-.91-.4-1.76-1.14-2.4-.27-.23-.57-.43-.9-.58Z"/>
      <path class="cls-1" d="M28.74,9.86c-.16-.14-.35-.23-.61-.22-.23,0-.45,.08-.61,.22l-2.85,2.51-.02-8.45h6.9l.02,8.46-2.84-2.52Z"/>
      <path class="cls-8" d="M1,6.71s.02-.66,.71-.62h1.47v4.36H1.71s-.68,.03-.71-.62,0-3.12,0-3.12Z"/>
      <path class="cls-8" d="M1,13.41s.02-.66,.71-.62h1.47v4.36H1.71s-.68,.03-.71-.62,0-3.12,0-3.12Z"/>
      <path class="cls-8" d="M.97,20.12s.02-.66,.71-.62h1.47v4.36H1.68s-.68,.03-.71-.62,0-3.12,0-3.12Z"/>
      <path class="cls-8" d="M4.3,20.12s-.02-.66-.71-.62h-1.47s0,4.36,0,4.36h1.47s.68,.03,.71-.62,0-3.12,0-3.12Z"/>
      <path class="cls-8" d="M1,26.82s.02-.66,.71-.62h1.47v4.36H1.71s-.68,.03-.71-.62,0-3.12,0-3.12Z"/>
      <path class="cls-8" d="M4.3,20.12s-.02-.66-.71-.62h-1.47s0,4.36,0,4.36h1.47s.68,.03,.71-.62,0-3.12,0-3.12Z"/>
      <path class="cls-8" d="M4.3,26.81s-.02-.66-.71-.62h-1.47s0,4.36,0,4.36h1.47s.68,.03,.71-.62,0-3.12,0-3.12Z"/>
      <path class="cls-8" d="M4.35,13.4s-.02-.66-.71-.62h-1.47s0,4.36,0,4.36h1.47s.68,.03,.71-.62,0-3.12,0-3.12Z"/>
      <path class="cls-8" d="M4.35,13.4s-.02-.66-.71-.62h-1.47s0,4.36,0,4.36h1.47s.68,.03,.71-.62,0-3.12,0-3.12Z"/>
      <path class="cls-8" d="M4.57,6.71s-.02-.66-.71-.62h-1.47s0,4.36,0,4.36h1.47s.68,.03,.71-.62,0-3.12,0-3.12Z"/>
      <rect class="cls-7" x="9.68" y="19.16" width="20.4" height="8.4"/>
      <path class="cls-2" d="M18.78,21.07v-1.39h2.11v1.39h-2.11Zm.01,6.13v-5.51h2.09v5.51h-2.09Z"/>
      <line class="cls-4" x1="1.77" y1="13.98" x2="1.77" y2="15.87"/>
      <line class="cls-4" x1="1.68" y1="20.81" x2="1.68" y2="22.7"/>
      <line class="cls-4" x1="1.77" y1="27.41" x2="1.77" y2="29.3"/>
      <line class="cls-4" x1="1.68" y1="7.23" x2="1.68" y2="9.11"/>
      <path class="cls-5" d="M8.15,8.09v-2.32c0-.76,.7-1.37,1.57-1.37h4.99"/>
      <line class="cls-6" x1="21.36" y1="32.83" x2="32.06" y2="32.75"/>
    </g>
  </g>
</svg>