<?xml version="1.0" encoding="UTF-8"?>
<svg id="_레이어_2" data-name="레이어 2" xmlns="http://www.w3.org/2000/svg" xmlns:xlink="http://www.w3.org/1999/xlink" viewBox="0 0 24 24">
  <defs>
    <style>
      .cls-1 {
        fill: url(#_무제_그라디언트_9);
      }

      .cls-2 {
        fill: url(#_무제_그라디언트_12);
      }

      .cls-3 {
        fill: url(#_무제_그라디언트_11);
      }

      .cls-4 {
        fill: url(#radial-gradient);
      }

      .cls-5 {
        fill: url(#_무제_그라디언트_7);
      }
    </style>
    <radialGradient id="_무제_그라디언트_12" data-name="무제 그라디언트 12" cx="9.71" cy="3.15" fx="9.71" fy="3.15" r="6.97" gradientTransform="translate(0 .17)" gradientUnits="userSpaceOnUse">
      <stop offset="0" stop-color="#e25b4d"/>
      <stop offset=".43" stop-color="#cd2589"/>
      <stop offset=".78" stop-color="#6661a9"/>
    </radialGradient>
    <radialGradient id="radial-gradient" cx="4.65" cy="-.04" fx="4.65" fy="-.04" r=".1" gradientTransform="translate(0 .17)" gradientUnits="userSpaceOnUse">
      <stop offset=".1" stop-color="#fede74"/>
      <stop offset=".15" stop-color="#fbd170"/>
      <stop offset=".25" stop-color="#f4b066"/>
      <stop offset=".38" stop-color="#e87a56"/>
      <stop offset=".45" stop-color="#e25b4d"/>
      <stop offset=".68" stop-color="#cd2589"/>
      <stop offset="1" stop-color="#6661a9"/>
    </radialGradient>
    <radialGradient id="_무제_그라디언트_7" data-name="무제 그라디언트 7" cx="2.2" cy="5.44" fx="2.2" fy="5.44" r="6.09" gradientTransform="translate(0 .17)" gradientUnits="userSpaceOnUse">
      <stop offset=".2" stop-color="#cd2589"/>
      <stop offset=".3" stop-color="#c5298b"/>
      <stop offset=".45" stop-color="#b23491"/>
      <stop offset=".63" stop-color="#92469b"/>
      <stop offset=".82" stop-color="#6660a8"/>
      <stop offset=".83" stop-color="#6661a9"/>
    </radialGradient>
    <radialGradient id="_무제_그라디언트_9" data-name="무제 그라디언트 9" cx="18.13" cy="5.45" fx="18.13" fy="5.45" r="10.89" gradientTransform="translate(0 .17)" gradientUnits="userSpaceOnUse">
      <stop offset=".02" stop-color="#e25b4d"/>
      <stop offset=".31" stop-color="#cd2589"/>
      <stop offset=".68" stop-color="#6661a9"/>
    </radialGradient>
    <radialGradient id="_무제_그라디언트_11" data-name="무제 그라디언트 11" cx="7.03" cy="25.16" fx="7.03" fy="25.16" r="31.71" gradientTransform="translate(0 .17)" gradientUnits="userSpaceOnUse">
      <stop offset=".01" stop-color="#fede74"/>
      <stop offset=".05" stop-color="#fbd170"/>
      <stop offset=".11" stop-color="#f4b066"/>
      <stop offset=".19" stop-color="#e87a56"/>
      <stop offset=".23" stop-color="#e25b4d"/>
      <stop offset=".56" stop-color="#cd2589"/>
      <stop offset="1" stop-color="#6661a9"/>
    </radialGradient>
  </defs>
  <g id="_레이어_3" data-name="레이어 3">
    <g>
      <polygon class="cls-2" points="6.82 0 9.99 5.21 16.69 5.21 13.52 0 6.82 0"/>
      <path class="cls-4" d="M4.63,.12h0s.05,0,.07,0h-.07Z"/>
      <path class="cls-5" d="M.04,5.21H7.43L4.64,.13C2.19,.66,.31,2.7,.04,5.21Z"/>
      <path class="cls-1" d="M23.96,5.21c-.32-2.93-2.82-5.21-5.85-5.21h-2.4l3.17,5.21h5.08Z"/>
      <path class="cls-3" d="M0,18.15c0,3.23,2.63,5.85,5.88,5.85h12.23c3.25,0,5.88-2.62,5.88-5.85V7.03H0v11.12Zm8.16-5.97c0-1.04,1.14-1.68,2.03-1.14l4.74,2.88c.86,.52,.86,1.76,0,2.28l-4.74,2.88c-.89,.54-2.03-.1-2.03-1.14v-5.76Z"/>
    </g>
  </g>
</svg>