<?xml version="1.0" encoding="UTF-8"?>
<svg id="_레이어_2" data-name="레이어 2" xmlns="http://www.w3.org/2000/svg" viewBox="0 0 20 24">
  <defs>
    <style>
      .cls-1 {
        fill: #fff;
      }

      .cls-2 {
        fill: #d61c1a;
      }
    </style>
  </defs>
  <g id="_레이어_3" data-name="레이어 3">
    <g>
      <path class="cls-2" d="M17.36,8.7L7.04,13.97c-2.33,1.19-5.25,.33-6.49-1.92h0c-1.24-2.25-.34-5.06,1.99-6.25L12.86,.54c2.33-1.19,5.25-.33,6.49,1.92h0c1.24,2.25,.34,5.06-1.99,6.25Z"/>
      <path class="cls-2" d="M17.45,18.19l-10.31,5.27c-2.33,1.19-5.25,.33-6.49-1.92h0c-1.24-2.25-.34-5.06,1.99-6.25l10.31-5.27c2.33-1.19,5.25-.33,6.49,1.92h0c1.24,2.25,.34,5.06-1.99,6.25Z"/>
      <polygon class="cls-1" points="10.4 10.39 13.77 12.25 10.41 14.13 7.04 16.02 7.04 12.27 7.04 8.52 10.4 10.39"/>
    </g>
  </g>
</svg>