<?xml version="1.0" encoding="UTF-8"?>
<svg id="_레이어_2" data-name="레이어 2" xmlns="http://www.w3.org/2000/svg" viewBox="0 0 24 24">
  <defs>
    <style>
      .cls-1 {
        fill: #fff;
      }

      .cls-2 {
        fill: #40b044;
      }
    </style>
  </defs>
  <g id="_레이어_3" data-name="레이어 3">
    <g>
      <rect class="cls-2" y="0" width="24" height="24" rx="3.97" ry="3.97"/>
      <path class="cls-1" d="M6.66,6.51V3.76c0-.34,.27-.61,.61-.61s.61,.27,.61,.61v2.74c0,2.28,1.85,4.13,4.13,4.13s4.13-1.85,4.13-4.13V3.76c0-.34,.27-.61,.61-.61s.61,.27,.61,.61v2.74c0,2.95-2.4,5.34-5.34,5.34s-5.34-2.4-5.34-5.34Z"/>
      <polygon class="cls-1" points="20.37 20.56 18.99 20.56 16.63 17.66 16.63 20.56 15.05 20.56 15.05 15.68 16.42 15.68 18.78 18.63 18.78 15.68 20.37 15.68 20.37 20.56"/>
    </g>
  </g>
</svg>