<?xml version="1.0" encoding="UTF-8"?>
<svg id="_레이어_2" data-name="레이어 2" xmlns="http://www.w3.org/2000/svg" viewBox="0 0 42.06 42">
  <defs>
    <style>
      .cls-1, .cls-2, .cls-3 {
        stroke: #41210d;
      }

      .cls-1, .cls-2, .cls-3, .cls-4 {
        stroke-linejoin: round;
        stroke-width: 2px;
      }

      .cls-1, .cls-4 {
        fill: none;
      }

      .cls-2 {
        fill: #f5c520;
      }

      .cls-3, .cls-5 {
        fill: #f0a225;
      }

      .cls-4 {
        stroke: #fff;
        stroke-linecap: round;
      }
    </style>
  </defs>
  <g id="MasterLayer_1" data-name="MasterLayer 1">
    <g>
      <path class="cls-3" d="M23.92,16.67l3.41,3.47h0s2.38,2.43,2.38,2.43l1.39,1.41h0s8.57,8.77,8.57,8.77c1.85,1.89,1.85,4.95,0,6.84-1.85,1.89-4.85,1.89-6.7,0l-7.86-8.05-7.89-8.02c-1.85-1.89-1.85-4.95,0-6.84,1.85-1.89,4.85-1.89,6.71,0Z"/>
      <path class="cls-2" d="M32.03,16.83c0,8.74-6.95,15.83-15.52,15.83S1,25.57,1,16.83,7.95,1,16.52,1s15.52,7.09,15.52,15.83Z"/>
      <path class="cls-5" d="M16.69,1.01v31.64c8.49-.1,15.34-7.14,15.34-15.82S25.18,1.11,16.69,1.01Z"/>
      <path class="cls-1" d="M32.03,16.83c0,8.74-6.95,15.83-15.52,15.83S1,25.57,1,16.83,7.95,1,16.52,1s15.52,7.09,15.52,15.83Z"/>
      <path class="cls-2" d="M26.78,16.83c0,5.78-4.6,10.47-10.27,10.47s-10.26-4.69-10.26-10.47S10.85,6.36,16.52,6.36s10.27,4.69,10.27,10.47Z"/>
      <path class="cls-4" d="M16.52,11.69c2.78,0,5.04,2.3,5.04,5.14"/>
    </g>
  </g>
</svg>