<?xml version="1.0" encoding="UTF-8"?>
<svg id="_레이어_2" data-name="레이어 2" xmlns="http://www.w3.org/2000/svg" viewBox="0 0 37 37">
  <defs>
    <style>
      .cls-1, .cls-2, .cls-3 {
        stroke: #41210d;
      }

      .cls-1, .cls-2, .cls-3, .cls-4 {
        stroke-linejoin: round;
        stroke-width: 2px;
      }

      .cls-1, .cls-4 {
        fill: none;
      }

      .cls-2 {
        fill: #f5c520;
      }

      .cls-3, .cls-5 {
        fill: #f0a225;
      }

      .cls-4 {
        stroke: #fff;
        stroke-linecap: round;
      }
    </style>
  </defs>
  <g id="MasterLayer_1" data-name="MasterLayer 1">
    <g>
      <path class="cls-3" d="M21.02,14.71l2.98,3.03h0s2.08,2.13,2.08,2.13l1.21,1.23h0s7.49,7.67,7.49,7.67c1.62,1.65,1.62,4.33,0,5.99-1.62,1.65-4.24,1.65-5.86,0l-6.87-7.04-6.89-7.02c-1.62-1.65-1.62-4.33,0-5.99,1.62-1.65,4.24-1.65,5.86,0Z"/>
      <path class="cls-2" d="M28.12,14.85c0,7.65-6.07,13.85-13.56,13.85S1,22.5,1,14.85,7.07,1,14.56,1s13.56,6.2,13.56,13.85Z"/>
      <path class="cls-5" d="M14.71,1.01V28.7c7.42-.08,13.41-6.25,13.41-13.84S22.13,1.09,14.71,1.01Z"/>
      <path class="cls-1" d="M28.12,14.85c0,7.65-6.07,13.85-13.56,13.85S1,22.5,1,14.85,7.07,1,14.56,1s13.56,6.2,13.56,13.85Z"/>
      <path class="cls-2" d="M23.53,14.85c0,5.06-4.02,9.16-8.97,9.16S5.59,19.91,5.59,14.85,9.6,5.69,14.56,5.69s8.97,4.1,8.97,9.16Z"/>
      <path class="cls-4" d="M14.56,10.36c2.43,0,4.4,2.01,4.4,4.49"/>
    </g>
  </g>
</svg>