<?xml version="1.0" encoding="UTF-8"?>
<svg id="_레이어_2" data-name="레이어 2" xmlns="http://www.w3.org/2000/svg" viewBox="0 0 37 37">
  <defs>
    <style>
      .cls-1, .cls-2 {
        stroke: #41210d;
      }

      .cls-1, .cls-2, .cls-3, .cls-4 {
        stroke-linejoin: round;
        stroke-width: 2px;
      }

      .cls-1, .cls-3 {
        fill: none;
      }

      .cls-2 {
        fill: #f5c520;
      }

      .cls-5 {
        fill: #40210d;
      }

      .cls-3, .cls-4 {
        stroke: #fef3f3;
        stroke-linecap: round;
      }

      .cls-4 {
        fill: #fff;
      }

      .cls-6 {
        fill: #f0a225;
      }
    </style>
  </defs>
  <g id="MasterLayer_1" data-name="MasterLayer 1">
    <g>
      <path class="cls-2" d="M36,34.6c0,.77-.56,1.4-1.24,1.4H2.24c-.69,0-1.24-.63-1.24-1.4V16.71c0-.77,.56-1.4,1.24-1.4H34.76c.68,0,1.24,.63,1.24,1.4v17.89Z"/>
      <ellipse class="cls-2" cx="19.01" cy="4.04" rx="2.69" ry="3.04"/>
      <line class="cls-2" x1="2.24" y1="15.31" x2="16.33" y2="4.04"/>
      <line class="cls-1" x1="21.7" y1="4.04" x2="34.76" y2="15.31"/>
      <path class="cls-6" d="M18.5,25.72v-9.31H2.35c-.27,0-.49,.25-.49,.55v17.51c0,.22,.16,.39,.35,.39H18.5v-9.15Z"/>
      <g>
        <path class="cls-5" d="M3.92,29.5v-8.88h5.39v1.78h-3.2v2.01h2.5v1.74h-2.5v3.34H3.92Z"/>
        <path class="cls-5" d="M11.37,29.5v-8.88h3.29c1,0,1.75,.22,2.24,.67s.73,1.15,.73,2.1c0,.58-.11,1.05-.33,1.39-.22,.35-.54,.63-.97,.84v.05l1.75,3.82h-2.29l-1.42-3.24h-.82v3.24h-2.19Zm2.17-4.73h.83c.38,0,.66-.1,.83-.31,.17-.21,.26-.52,.26-.95s-.09-.73-.26-.92c-.18-.19-.46-.28-.86-.28h-.79v2.46Z"/>
        <path class="cls-5" d="M19.9,29.5v-8.88h5.41v1.78h-3.24v1.69h2.53v1.74h-2.53v1.88h3.35v1.78h-5.52Z"/>
        <path class="cls-5" d="M27.56,29.5v-8.88h5.41v1.78h-3.24v1.69h2.53v1.74h-2.53v1.88h3.35v1.78h-5.52Z"/>
      </g>
      <line class="cls-4" x1="24.62" y1="33.06" x2="32.57" y2="33.06"/>
      <path class="cls-3" d="M3.12,19.72v-.88c0-.55,.4-1,.88-1h5.41"/>
    </g>
  </g>
</svg>