<?xml version="1.0" encoding="UTF-8"?>
<svg id="_레이어_2" data-name="레이어 2" xmlns="http://www.w3.org/2000/svg" viewBox="0 0 42 42">
  <defs>
    <style>
      .cls-1, .cls-2 {
        stroke: #41210d;
      }

      .cls-1, .cls-2, .cls-3, .cls-4, .cls-5 {
        stroke-linejoin: round;
      }

      .cls-1, .cls-2, .cls-4 {
        fill: #f5c520;
      }

      .cls-6 {
        fill: #41210d;
      }

      .cls-2, .cls-3, .cls-4 {
        stroke-width: 2px;
      }

      .cls-3, .cls-4, .cls-5 {
        stroke-linecap: round;
      }

      .cls-3, .cls-5 {
        fill: none;
        stroke: #fff;
      }

      .cls-4 {
        stroke: #40210d;
      }

      .cls-7 {
        fill: #f0a225;
      }

      .cls-5 {
        stroke-width: 3px;
      }
    </style>
  </defs>
  <g id="MasterLayer_1" data-name="MasterLayer 1">
    <g>
      <path class="cls-4" d="M5.03,41c-1.21,0-2.35-.54-3.12-1.48-.77-.94-1.07-2.16-.83-3.35l1.69-8.24c.32-1.55,1.08-2.97,2.2-4.08L26.2,2.67c1.08-1.08,2.52-1.67,4.05-1.67s2.97,.59,4.06,1.67l5.01,5c1.08,1.08,1.68,2.51,1.68,4.04,0,1.53-.59,2.96-1.68,4.04l-21.23,21.17c-1.12,1.12-2.53,1.88-4.07,2.22l-8.13,1.76c-.29,.06-.58,.09-.87,.09h0Z"/>
      <polygon class="cls-7" points="29.75 12.42 35.43 18.09 17.11 36.36 11.43 30.7 29.75 12.42"/>
      <line class="cls-1" x1="17.13" y1="36.38" x2="5.3" y2="24.58"/>
      <line class="cls-2" x1="36.5" y1="17.95" x2="24.22" y2="5.71"/>
      <path class="cls-6" d="M5,40.27l3.72-.74-6.24-6.23-.71,3.78c-.35,1.87,1.36,3.55,3.22,3.18Z"/>
      <line class="cls-1" x1="11.36" y1="30.56" x2="29.88" y2="12.09"/>
      <line class="cls-5" x1="15.65" y1="19.33" x2="23.06" y2="12.02"/>
      <path class="cls-3" d="M29.69,5.61c.34-.25,.9-.47,1.59-.07"/>
    </g>
  </g>
</svg>