<?xml version="1.0" encoding="UTF-8"?>
<svg id="_레이어_2" data-name="레이어 2" xmlns="http://www.w3.org/2000/svg" viewBox="0 0 37 37">
  <defs>
    <style>
      .cls-1, .cls-2 {
        stroke: #41210d;
      }

      .cls-1, .cls-2, .cls-3, .cls-4, .cls-5 {
        stroke-linejoin: round;
      }

      .cls-1, .cls-2, .cls-4 {
        fill: #f5c520;
      }

      .cls-6 {
        fill: #41210d;
      }

      .cls-2, .cls-3, .cls-4 {
        stroke-width: 2px;
      }

      .cls-3, .cls-4, .cls-5 {
        stroke-linecap: round;
      }

      .cls-3, .cls-5 {
        fill: none;
        stroke: #fff;
      }

      .cls-4 {
        stroke: #40210d;
      }

      .cls-7 {
        fill: #f0a225;
      }

      .cls-5 {
        stroke-width: 3px;
      }
    </style>
  </defs>
  <g id="MasterLayer_1" data-name="MasterLayer 1">
    <g>
      <path class="cls-4" d="M4.52,36c-1.06,0-2.05-.47-2.73-1.3-.67-.82-.94-1.89-.72-2.93l1.48-7.21c.28-1.36,.95-2.59,1.93-3.57L23.05,2.46c.95-.94,2.21-1.46,3.55-1.46s2.6,.52,3.55,1.46l4.39,4.38c.95,.94,1.47,2.2,1.47,3.54,0,1.34-.52,2.59-1.47,3.54L15.96,32.44c-.98,.98-2.21,1.65-3.56,1.94l-7.11,1.54c-.25,.05-.51,.08-.76,.08h0Z"/>
      <polygon class="cls-7" points="26.15 11 31.13 15.95 15.1 31.94 10.13 26.98 26.15 11"/>
      <line class="cls-1" x1="15.11" y1="31.96" x2="4.76" y2="21.63"/>
      <line class="cls-2" x1="32.06" y1="15.83" x2="21.32" y2="5.12"/>
      <path class="cls-6" d="M4.5,35.36l3.26-.64-5.46-5.45-.62,3.31c-.3,1.63,1.19,3.11,2.82,2.78Z"/>
      <line class="cls-1" x1="10.07" y1="26.86" x2="26.27" y2="10.71"/>
      <line class="cls-5" x1="13.82" y1="17.04" x2="20.3" y2="10.64"/>
      <path class="cls-3" d="M26.1,5.03c.3-.22,.78-.41,1.39-.06"/>
    </g>
  </g>
</svg>