<?xml version="1.0" encoding="UTF-8"?>
<svg id="_레이어_2" data-name="레이어 2" xmlns="http://www.w3.org/2000/svg" xmlns:xlink="http://www.w3.org/1999/xlink" viewBox="0 0 24 24">
  <defs>
    <style>
      .cls-1 {
        fill: #fff;
      }

      .cls-2 {
        fill: url(#_무제_그라디언트_10);
      }
    </style>
    <linearGradient id="_무제_그라디언트_10" data-name="무제 그라디언트 10" x1="12.11" y1="20.23" x2="12.11" y2="-1.69" gradientTransform="translate(.07 2.49) rotate(1.07)" gradientUnits="userSpaceOnUse">
      <stop offset="0" stop-color="#b52323"/>
      <stop offset="1" stop-color="#d74235"/>
    </linearGradient>
  </defs>
  <g id="_레이어_3" data-name="레이어 3">
    <g>
      <polygon class="cls-2" points="12.22 0 13.7 1.64 15.62 .55 16.57 2.53 18.73 2.03 19.08 4.19 21.28 4.31 21.01 6.49 23.09 7.22 22.21 9.23 24 10.52 22.58 12.2 23.94 13.93 22.1 15.15 22.91 17.19 20.79 17.84 20.99 20.03 18.78 20.07 18.35 22.22 16.22 21.63 15.19 23.58 13.31 22.42 11.78 24 10.3 22.36 8.38 23.45 7.43 21.47 5.27 21.97 4.92 19.81 2.72 19.69 2.99 17.51 .91 16.78 1.79 14.77 0 13.48 1.42 11.8 .06 10.07 1.9 8.85 1.09 6.81 3.21 6.16 3.01 3.97 5.22 3.93 5.65 1.78 7.78 2.37 8.81 .42 10.69 1.58 12.22 0"/>
      <g>
        <path class="cls-1" d="M5.36,12.4c0,.12,.08,.56,.6,.56,.51,0,.6-.44,.6-.56v-.88c0-.12-.08-.56-.6-.56-.51,0-.6,.44-.6,.56v.88Zm-.6-.85c0-.05,0-.33,.15-.58,.14-.24,.44-.52,1.04-.53h0c.61,0,.9,.28,1.04,.53,.15,.26,.15,.53,.15,.58v.83c0,.05,0,.33-.15,.58-.14,.25-.43,.52-1.04,.53h0c-.61,0-.9-.28-1.04-.53-.15-.26-.15-.53-.15-.58v-.83Z"/>
        <path class="cls-1" d="M4.57,12.89l-.02-.04h0s0,0,0,0h0s-.45-.23-.45-.23h-.02s-.04,.02-.04,.02h0c-.07,.16-.22,.32-.54,.32-.51,0-.6-.44-.6-.56v-.88c0-.12,.08-.56,.6-.56,.32,0,.47,.17,.54,.32l.04,.03h.02s0,0,0,0l.45-.24h0s.02-.04,.02-.04v-.02s-.03-.05-.03-.05c-.14-.25-.44-.52-1.04-.53h0s0,0,0,0h0c-.61,0-.9,.28-1.04,.53-.15,.26-.15,.53-.15,.58v.83c0,.05,0,.33,.15,.58,.14,.25,.44,.52,1.04,.53h0c.61,0,.9-.28,1.04-.53,.01-.02,.02-.04,.03-.05h0s0-.02,0-.02"/>
        <path class="cls-1" d="M9.95,13.39v-2.85h0s-.02-.04-.04-.04h0s-.52,0-.52,0h0s-.04,.02-.04,.04h0v1.01h0v.86c0,.12-.08,.56-.6,.56-.51,0-.6-.44-.6-.56v-1.86h0s-.02-.04-.04-.04h0s0,0,0,0h-.52s0,0,0,0c-.02,0-.04,.02-.04,.04h0v1.84c0,.06,0,.33,.14,.58,.13,.25,.39,.52,.94,.53h0c.36,0,.6-.15,.75-.3v.2h0s.02,.04,.04,.04h0s0,0,0,0h.48s.04-.02,.04-.04h0"/>
        <path class="cls-1" d="M14.88,12.45c0,.12-.08,.53-.58,.53-.5,0-.58-.41-.58-.53v-.05c0-.12,.08-.53,.58-.53,.5,0,.58,.41,.58,.53v.05Zm.56-.93c0-.23-.12-.78-.65-1-.54-.22-1.26,.05-1.44,.12h0s-.03,.02-.03,.04v.02s0,0,0,0l.15,.41h0s.04,.03,.04,.03h.02s0,0,0,0c.2-.1,.74-.28,1.07-.13,.32,.15,.29,.48,.29,.52h0v.08c-.16-.11-.37-.22-.68-.22h0c-.55,0-.81,.26-.94,.5-.13,.24-.14,.5-.14,.55h0c0,.05,0,.31,.14,.55,.13,.23,.39,.49,.94,.5h0c.32,0,.54-.12,.7-.24v.14h0s0,0,0,0c0,.02,.02,.04,.04,.04h0s0,0,0,0h.45s0,0,0,0c.02,0,.04-.02,.04-.04v-1.55h0v-.32"/>
        <path class="cls-1" d="M18.3,11.55c0-.05,0-.33-.14-.58-.13-.25-.39-.52-.94-.53h0s0,0,0,0h0s0,0,0,0c-.36,0-.59,.15-.75,.3v-.2h0s-.02-.04-.04-.04h0s-.48,0-.48,0h0s-.04,.02-.04,.04h0s0,0,0,0v2.86h0s.02,.04,.04,.04h0s0,0,0,0h.51s.04-.02,.04-.04h0v-1.9c.01-.15,.12-.53,.6-.53,.51,0,.6,.44,.6,.56v1.87h0s.02,.04,.04,.04h.52s.04-.02,.04-.04h0v-1.84Z"/>
        <path class="cls-1" d="M20.49,11.53c0,.11-.08,.53-.6,.53-.51,0-.6-.42-.6-.53v-.04c0-.11,.08-.53,.6-.53,.51,0,.6,.42,.6,.53v.04Zm.93-1.03s-.02-.04-.04-.04h0c-.31,0-.51,.12-.64,.26-.17-.15-.44-.27-.85-.27h0s0,0,0,0h0c-.61,0-.9,.27-1.04,.5-.15,.25-.15,.5-.15,.56v.03c0,.05,0,.31,.16,.56,.06,.1,.16,.22,.3,.31-.23,.13-.43,.36-.43,.78v.22h0s.02,.04,.04,.04h0s1.73,0,1.73,0c.21,0,.31,.14,.34,.27,.04,.16-.03,.38-.3,.53h0s-.03,.02-.03,.04v.02s0,0,0,0l.23,.41h0l.04,.02h.02s0,0,0,0c.52-.27,.64-.77,.56-1.14-.09-.4-.43-.68-.86-.68l-1.2,.03c.07-.36,.49-.35,.54-.35h0s.04,0,.06,0h0c.61,0,.9-.27,1.04-.5,.15-.24,.15-.5,.15-.56v-.03s0-.24-.1-.44c.08-.05,.2-.11,.38-.1h0s.04-.02,.04-.04v-.42h0Z"/>
        <path class="cls-1" d="M12.2,12.41c0,.12-.08,.56-.6,.56-.51,0-.6-.44-.6-.56v-.88c0-.13,.08-.56,.6-.56,.51,0,.6,.44,.6,.56v.88Zm.47-1.44c-.13-.25-.39-.52-.94-.53h0s0,0,0,0h0c-.36,0-.6,.15-.75,.3v-.21h0s-.02-.04-.04-.04h0s0,0,0,0h-.47s0,0,0,0c-.02,0-.04,.02-.04,.04h0s0,0,0,0v4.08h0s.02,.04,.04,.04h.52s.03-.02,.04-.04h0v-1.39c.16,.14,.38,.26,.72,.27h0c.55,0,.81-.28,.94-.53,.13-.26,.14-.53,.14-.58v-.83c0-.06,0-.33-.14-.58"/>
      </g>
    </g>
  </g>
</svg>