<?xml version="1.0" encoding="UTF-8"?>
<svg id="_레이어_2" data-name="레이어 2" xmlns="http://www.w3.org/2000/svg" viewBox="0 0 21 24">
  <defs>
    <style>
      .cls-1 {
        fill: #040000;
      }

      .cls-2 {
        fill: #6bc5cb;
      }

      .cls-3 {
        fill: #e73554;
      }
    </style>
  </defs>
  <g id="_레이어_3" data-name="레이어 3">
    <g id="_页面1" data-name="页面1">
      <g id="_编组-2" data-name="编组-2">
        <path id="_路径" data-name="路径" class="cls-2" d="M8.18,9.45v-.94c-.32-.05-.65-.08-.97-.08-3.15,0-5.93,2.06-6.88,5.09s.17,6.34,2.75,8.16c-1.94-2.09-2.47-5.14-1.37-7.78,1.1-2.64,3.63-4.38,6.47-4.44h0Z"/>
        <path id="_路径-2" data-name="路径" class="cls-2" d="M8.36,20.05c1.76,0,3.21-1.4,3.28-3.18V1h2.87c-.06-.33-.09-.67-.08-1h-3.92V15.84c-.07,1.79-1.52,3.2-3.28,3.2-.53,0-1.05-.14-1.52-.38,.62,.86,1.6,1.38,2.65,1.38Z"/>
        <path id="_路径-3" data-name="路径" class="cls-2" d="M19.86,6.39v-.88c-1.05,0-2.09-.31-2.97-.9,.77,.91,1.81,1.53,2.97,1.79h0Z"/>
        <path id="_路径-4" data-name="路径" class="cls-3" d="M16.9,4.6c-.87-1-1.34-2.28-1.34-3.6h-1.05c.27,1.48,1.14,2.78,2.39,3.6h0Z"/>
        <path id="_路径-5" data-name="路径" class="cls-3" d="M7.21,12.4c-1.51,0-2.82,1.05-3.18,2.54-.36,1.48,.33,3.02,1.66,3.73-.72-1.01-.83-2.35-.26-3.46s1.69-1.81,2.93-1.81c.33,0,.66,.06,.97,.15v-4.03c-.32-.05-.65-.07-.97-.08h-.17v3.07c-.32-.09-.64-.12-.97-.11Z"/>
        <path id="_路径-6" data-name="路径" class="cls-3" d="M19.86,6.39v3.07c-1.95,0-3.86-.63-5.44-1.79V15.72c0,4.02-3.23,7.27-7.21,7.27-1.48,0-2.92-.46-4.13-1.32,2.53,2.75,6.82,3.18,9.91,.62,1.68-1.39,2.56-3.55,2.56-5.75v-7.85c1.59,1.15,3.49,1.77,5.45,1.76v-3.95c-.38,0-.76-.04-1.14-.12Z"/>
        <path id="_路径-7" data-name="路径" class="cls-1" d="M14.42,15.72V7.67c1.59,1.15,3.49,1.77,5.45,1.76v-3.07c-1.15-.25-2.2-.87-2.97-1.76-1.25-.82-2.12-2.12-2.39-3.6h-2.87v15.87c-.06,1.42-1,2.64-2.34,3.05s-2.79-.08-3.62-1.23c-1.34-.71-2.02-2.25-1.66-3.73s1.67-2.53,3.18-2.54c.33,0,.66,.05,.97,.15v-3.07c-2.85,.05-5.4,1.8-6.51,4.45-1.1,2.66-.55,5.72,1.41,7.81,1.22,.83,2.66,1.26,4.13,1.23,3.98,0,7.2-3.25,7.21-7.27Z"/>
      </g>
    </g>
  </g>
</svg>